<svg xmlns="http://www.w3.org/2000/svg" xmlns:xlink="http://www.w3.org/1999/xlink" width="40" zoomAndPan="magnify" viewBox="0 0 30 30.000001" height="40" preserveAspectRatio="xMidYMid meet" version="1.0"><defs><clipPath id="79dfb1b016"><path d="M 0.484375 0 L 29.515625 0 L 29.515625 29.03125 L 0.484375 29.03125 Z M 0.484375 0 " clip-rule="nonzero"/></clipPath></defs><g clip-path="url(#79dfb1b016)"><path fill="#ffffff" d="M 0.484375 0 L 29.515625 0 L 29.515625 29.03125 L 0.484375 29.03125 Z M 0.484375 0 " fill-opacity="1" fill-rule="nonzero"/><path fill="#ffffff" d="M 0.484375 0 L 29.515625 0 L 29.515625 29.03125 L 0.484375 29.03125 Z M 0.484375 0 " fill-opacity="1" fill-rule="nonzero"/></g><path fill="#000000" d="M 3.164062 16.171875 L 3.164062 15.847656 C 3.023438 15.847656 2.933594 15.800781 2.933594 15.707031 L 2.933594 11.925781 C 2.933594 11.832031 2.886719 11.832031 2.839844 11.832031 L 2.511719 11.832031 L 1.8125 12.160156 L 1.765625 12.203125 L 1.765625 12.4375 L 1.8125 12.4375 L 1.953125 12.53125 C 2 12.578125 2 12.578125 2 12.625 L 2 15.707031 C 2 15.800781 1.90625 15.847656 1.765625 15.847656 L 1.765625 16.171875 Z M 8.066406 16.171875 L 8.066406 15.847656 C 7.925781 15.847656 7.789062 15.800781 7.789062 15.707031 L 7.789062 14.445312 C 8.066406 14.445312 8.347656 16.171875 8.628906 16.171875 L 9.746094 16.171875 L 9.699219 15.894531 C 9.28125 15.847656 9.140625 14.539062 8.8125 14.257812 C 8.765625 14.210938 8.765625 14.210938 8.8125 14.167969 C 9 14.027344 9.46875 13.886719 9.46875 13.046875 C 9.46875 12.066406 8.441406 11.972656 8.441406 11.972656 L 6.433594 11.972656 L 6.433594 12.296875 C 6.574219 12.34375 6.714844 12.390625 6.714844 12.625 L 6.714844 15.707031 C 6.714844 15.800781 6.527344 15.847656 6.433594 15.847656 L 6.433594 16.171875 Z M 7.789062 13.980469 C 7.789062 13.980469 8.347656 13.980469 8.347656 13.464844 L 8.347656 12.953125 C 8.347656 12.4375 7.789062 12.4375 7.789062 12.4375 Z M 7.789062 13.980469 " fill-opacity="1" fill-rule="evenodd"/><path fill="#000000" d="M 10.308594 14.257812 L 10.679688 14.257812 C 10.679688 14.257812 10.773438 13.699219 10.496094 13.699219 C 10.214844 13.699219 10.308594 14.257812 10.308594 14.257812 Z M 10.355469 14.632812 L 11.570312 14.632812 C 11.570312 14.632812 11.664062 14.351562 11.523438 13.980469 C 11.429688 13.652344 11.195312 13.277344 10.589844 13.277344 C 9.980469 13.277344 9.421875 13.792969 9.421875 14.726562 C 9.421875 15.707031 9.980469 16.265625 10.542969 16.265625 C 11.054688 16.265625 11.382812 15.988281 11.617188 15.519531 L 11.382812 15.285156 C 11.382812 15.285156 11.195312 15.566406 10.820312 15.566406 C 10.496094 15.519531 10.261719 15.054688 10.355469 14.632812 Z M 10.355469 14.632812 " fill-opacity="1" fill-rule="evenodd"/><path fill="#000000" d="M 12.875 17.246094 L 12.875 16.875 C 12.78125 16.875 12.6875 16.828125 12.6875 16.734375 L 12.6875 16.21875 C 13.484375 16.40625 14.042969 15.894531 14.042969 14.726562 C 14.042969 13.558594 13.574219 13.324219 13.15625 13.324219 C 12.921875 13.324219 12.734375 13.417969 12.6875 13.511719 L 12.6875 13.371094 C 12.6875 13.324219 12.640625 13.324219 12.59375 13.324219 L 12.269531 13.324219 L 11.570312 13.652344 C 11.523438 13.652344 11.523438 13.699219 11.523438 13.699219 L 11.523438 13.886719 C 11.523438 13.933594 11.570312 13.933594 11.570312 13.933594 L 11.707031 14.027344 C 11.753906 14.074219 11.753906 14.074219 11.753906 14.121094 L 11.753906 16.734375 C 11.753906 16.828125 11.660156 16.875 11.523438 16.875 L 11.523438 17.246094 C 11.988281 17.246094 12.410156 17.246094 12.875 17.246094 Z M 12.640625 14.257812 L 12.640625 15.566406 C 12.640625 15.566406 12.875 16.265625 13.109375 15.566406 C 13.25 15.007812 13.109375 13.511719 12.640625 14.257812 Z M 12.640625 14.257812 " fill-opacity="1" fill-rule="evenodd"/><path fill="#000000" d="M 13.949219 13.511719 L 14.695312 13.371094 L 15.023438 13.371094 L 15.023438 15.519531 C 15.023438 15.707031 15.398438 15.753906 15.398438 15.472656 L 15.398438 14.027344 C 15.398438 14.027344 15.351562 13.792969 15.210938 13.792969 L 15.210938 13.511719 L 15.910156 13.371094 L 16.238281 13.371094 L 16.238281 15.519531 C 16.238281 15.519531 16.226562 15.847656 16.425781 15.847656 L 16.472656 16.125 L 16.097656 16.265625 L 15.398438 16.265625 L 15.398438 16.035156 C 15.210938 16.171875 15.070312 16.265625 14.742188 16.265625 C 14.089844 16.265625 14.183594 15.472656 14.183594 15.472656 L 14.183594 14.027344 C 14.183594 14.027344 14.089844 13.792969 13.949219 13.792969 Z M 17.40625 14.820312 L 17.40625 14.257812 C 17.871094 13.511719 18.011719 15.007812 17.824219 15.566406 C 17.636719 16.265625 17.40625 15.566406 17.40625 15.566406 Z M 17.40625 13.511719 L 17.40625 11.925781 C 17.40625 11.832031 17.40625 11.832031 17.3125 11.832031 L 16.984375 11.832031 L 16.332031 12.160156 L 16.285156 12.203125 L 16.285156 12.4375 L 16.425781 12.53125 C 16.472656 12.578125 16.472656 12.578125 16.472656 12.625 L 16.472656 15.894531 C 16.75 16.265625 17.046875 16.25 17.40625 16.265625 C 18.109375 16.296875 18.804688 15.894531 18.804688 14.726562 C 18.804688 13.558594 18.339844 13.324219 17.917969 13.324219 C 17.683594 13.324219 17.496094 13.417969 17.40625 13.511719 Z M 17.40625 13.511719 " fill-opacity="1" fill-rule="evenodd"/><path fill="#000000" d="M 19.785156 14.820312 L 19.785156 14.257812 C 20.253906 13.511719 20.390625 15.007812 20.207031 15.566406 C 20.019531 16.265625 19.785156 15.566406 19.785156 15.566406 Z M 19.785156 13.511719 L 19.785156 11.925781 C 19.785156 11.832031 19.785156 11.832031 19.691406 11.832031 L 19.363281 11.832031 L 18.710938 12.160156 L 18.664062 12.203125 L 18.664062 12.4375 L 18.804688 12.53125 C 18.851562 12.578125 18.851562 12.578125 18.851562 12.625 L 18.851562 15.894531 C 19.132812 16.265625 19.425781 16.25 19.785156 16.265625 C 20.492188 16.296875 21.1875 15.894531 21.1875 14.726562 C 21.1875 13.558594 20.71875 13.324219 20.296875 13.324219 C 20.066406 13.324219 19.878906 13.417969 19.785156 13.511719 Z M 19.785156 13.511719 " fill-opacity="1" fill-rule="evenodd"/><path fill="#000000" d="M 22.445312 16.171875 L 22.445312 15.847656 C 22.304688 15.847656 22.210938 15.800781 22.210938 15.707031 L 22.210938 11.925781 C 22.210938 11.832031 22.167969 11.832031 22.121094 11.832031 L 21.792969 11.832031 L 21.09375 12.160156 L 21.046875 12.203125 L 21.046875 12.4375 L 21.09375 12.4375 L 21.234375 12.53125 C 21.28125 12.578125 21.28125 12.578125 21.28125 12.625 L 21.28125 15.707031 C 21.28125 15.800781 21.1875 15.847656 21.046875 15.847656 L 21.046875 16.171875 Z M 23.847656 16.171875 L 23.847656 15.847656 C 23.753906 15.847656 23.660156 15.800781 23.660156 15.707031 L 23.660156 13.417969 C 23.660156 13.324219 23.613281 13.324219 23.566406 13.324219 L 23.238281 13.324219 L 22.539062 13.652344 L 22.492188 13.699219 L 22.492188 13.933594 C 22.492188 13.933594 22.539062 13.933594 22.539062 13.980469 L 22.679688 14.074219 C 22.726562 14.074219 22.726562 14.074219 22.726562 14.121094 L 22.726562 15.707031 C 22.726562 15.800781 22.632812 15.847656 22.492188 15.847656 L 22.492188 16.171875 Z M 23.148438 12.8125 C 23.425781 12.8125 23.660156 12.578125 23.660156 12.296875 C 23.660156 12.019531 23.425781 11.785156 23.148438 11.785156 C 22.867188 11.785156 22.632812 12.019531 22.632812 12.296875 C 22.632812 12.578125 22.867188 12.8125 23.148438 12.8125 Z M 23.148438 12.8125 " fill-opacity="1" fill-rule="evenodd"/><path fill="#000000" d="M 25.152344 15.566406 C 25.433594 15.566406 25.527344 15.332031 25.527344 15.332031 L 25.761719 15.613281 C 25.621094 16.035156 25.386719 16.265625 24.828125 16.265625 C 24.265625 16.265625 23.707031 15.707031 23.707031 14.726562 C 23.707031 13.839844 24.21875 13.324219 24.828125 13.277344 C 25.246094 13.230469 25.808594 13.558594 25.761719 13.980469 C 25.714844 14.445312 25.386719 14.445312 25.339844 14.445312 C 25.292969 14.445312 24.96875 14.445312 24.96875 14.074219 C 24.96875 13.699219 24.828125 13.699219 24.828125 13.699219 C 24.640625 13.699219 24.546875 13.933594 24.546875 14.167969 L 24.546875 14.914062 C 24.59375 15.285156 24.828125 15.566406 25.152344 15.566406 Z M 27.910156 13.746094 L 27.910156 15.660156 C 28.046875 15.660156 28.1875 15.566406 28.1875 15.566406 L 28.234375 15.566406 L 28.234375 15.941406 C 28.234375 16.035156 28.046875 16.265625 27.628906 16.265625 C 27.207031 16.265625 27.066406 15.941406 27.066406 15.941406 C 26.835938 16.359375 26.320312 16.265625 26.132812 16.171875 C 25.996094 16.125 25.761719 15.941406 25.808594 15.425781 C 25.855469 14.914062 26.929688 14.539062 27.066406 14.445312 L 27.066406 13.746094 C 27.019531 13.605469 26.835938 13.652344 26.742188 13.746094 C 26.601562 13.933594 26.742188 14.167969 26.742188 14.167969 L 25.949219 14.398438 C 25.714844 13.511719 26.460938 13.277344 26.976562 13.277344 C 27.816406 13.277344 27.910156 13.746094 27.910156 13.746094 Z M 27.066406 15.519531 L 27.066406 14.914062 C 27.019531 14.914062 26.648438 15.191406 26.648438 15.378906 C 26.695312 15.613281 26.835938 15.660156 27.066406 15.519531 Z M 5.171875 13.746094 L 5.171875 15.660156 C 5.3125 15.660156 5.453125 15.566406 5.453125 15.566406 L 5.5 15.566406 L 5.5 15.941406 C 5.5 16.035156 5.3125 16.265625 4.890625 16.265625 C 4.472656 16.265625 4.332031 15.941406 4.332031 15.941406 C 4.097656 16.359375 3.585938 16.265625 3.398438 16.171875 C 3.257812 16.125 3.023438 15.941406 3.070312 15.425781 C 3.117188 14.914062 4.191406 14.539062 4.332031 14.445312 L 4.332031 13.746094 C 4.285156 13.605469 4.097656 13.652344 4.003906 13.746094 C 3.867188 13.933594 4.003906 14.167969 4.003906 14.167969 L 3.210938 14.398438 C 2.976562 13.511719 3.726562 13.277344 4.238281 13.277344 C 5.078125 13.277344 5.171875 13.746094 5.171875 13.746094 Z M 4.332031 15.519531 L 4.332031 14.914062 C 4.285156 14.914062 3.914062 15.191406 3.957031 15.378906 C 3.957031 15.613281 4.097656 15.660156 4.332031 15.519531 Z M 4.332031 15.519531 " fill-opacity="1" fill-rule="evenodd"/><path fill="#ffffff" d="M 1.765625 10.089844 L 28.234375 10.089844 L 28.234375 18.941406 L 1.765625 18.941406 Z M 1.765625 10.089844 " fill-opacity="1" fill-rule="evenodd"/><path fill="#ffffff" d="M 2.027344 10.3125 L 27.992188 10.3125 L 27.992188 18.71875 L 2.027344 18.71875 Z M 2.027344 10.3125 " fill-opacity="1" fill-rule="evenodd"/><path stroke-linecap="round" transform="matrix(0.150617, 0, 0, 0.150617, 0.48387, 0.00000193548)" fill-opacity="1" fill="#000000" fill-rule="evenodd" stroke-linejoin="round" d="M 59.187141 75.367252 C 59.394622 75.574732 59.524297 75.860018 59.524297 76.171239 L 59.524297 84.548261 C 59.524297 85.196637 59.005596 85.689403 58.35722 85.689403 L 49.980197 85.689403 C 49.668977 85.689403 49.383691 85.559728 49.176211 85.352247 L 50.576704 83.951755 C 50.732314 84.107365 50.913859 84.18517 51.12134 84.159235 L 57.216077 84.159235 C 57.656973 84.159235 57.994129 83.822079 57.994129 83.407118 L 57.994129 77.312381 C 57.994129 77.104901 57.916324 76.923355 57.760713 76.767745 Z M 59.187141 75.367252 " stroke="#373739" stroke-width="0.215" stroke-opacity="1" stroke-miterlimit="2.613"/><path stroke-linecap="round" transform="matrix(0.150617, 0, 0, 0.150617, 0.48387, 0.00000193548)" fill-opacity="1" fill="#ffffff" fill-rule="evenodd" stroke-linejoin="round" d="M 49.176211 85.352247 C 48.942795 85.144767 48.839055 84.859481 48.839055 84.548261 L 48.839055 76.171239 C 48.839055 75.548797 49.357756 75.030096 49.980197 75.030096 L 58.35722 75.030096 C 58.694375 75.030096 58.979661 75.159772 59.187141 75.367252 L 57.760713 76.767745 C 57.631038 76.612135 57.449493 76.560264 57.216077 76.560264 L 51.12134 76.560264 C 50.628574 76.560264 50.369223 76.79368 50.369223 77.312381 L 50.369223 83.407118 C 50.369223 83.614599 50.447028 83.796144 50.602639 83.951755 Z M 49.176211 85.352247 " stroke="#373739" stroke-width="0.215" stroke-opacity="1" stroke-miterlimit="2.613"/><path stroke-linecap="round" transform="matrix(0.150617, 0, 0, 0.150617, 0.48387, 0.00000193548)" fill-opacity="1" fill="#ffffff" fill-rule="evenodd" stroke-linejoin="round" d="M 51.12134 76.560264 L 57.216077 76.560264 C 57.656973 76.560264 57.994129 76.89742 57.994129 77.312381 L 57.994129 83.407118 C 57.994129 83.92582 57.734778 84.18517 57.216077 84.18517 L 51.12134 84.18517 C 50.628574 84.18517 50.369223 83.92582 50.369223 83.407118 L 50.369223 77.312381 C 50.369223 76.89742 50.706379 76.560264 51.12134 76.560264 Z M 51.12134 76.560264 " stroke="#373739" stroke-width="0.215" stroke-opacity="1" stroke-miterlimit="2.613"/><path stroke-linecap="round" transform="matrix(0.150617, 0, 0, 0.150617, 0.48387, 0.00000193548)" fill-opacity="1" fill="#000000" fill-rule="evenodd" stroke-linejoin="round" d="M 59.187141 86.026559 C 59.394622 86.234039 59.524297 86.519325 59.524297 86.830545 L 59.524297 95.233503 C 59.524297 95.855944 59.005596 96.374645 58.35722 96.374645 L 49.980197 96.374645 C 49.668977 96.374645 49.409626 96.24497 49.176211 96.037489 L 50.576704 94.611061 C 50.732314 94.766672 50.913859 94.844477 51.12134 94.844477 L 57.216077 94.844477 C 57.734778 94.844477 57.994129 94.585126 57.994129 94.09236 L 57.994129 87.971688 C 57.994129 87.764207 57.916324 87.582662 57.760713 87.452987 Z M 59.187141 86.026559 " stroke="#373739" stroke-width="0.215" stroke-opacity="1" stroke-miterlimit="2.613"/><path stroke-linecap="round" transform="matrix(0.150617, 0, 0, 0.150617, 0.48387, 0.00000193548)" fill-opacity="1" fill="#ffffff" fill-rule="evenodd" stroke-linejoin="round" d="M 49.176211 96.037489 C 48.942795 95.804074 48.839055 95.544723 48.839055 95.233503 L 48.839055 86.830545 C 48.839055 86.208104 49.357756 85.689403 49.980197 85.689403 L 58.35722 85.689403 C 58.694375 85.689403 58.979661 85.819078 59.187141 86.026559 L 57.760713 87.452987 C 57.631038 87.297376 57.449493 87.219571 57.216077 87.219571 L 51.12134 87.219571 C 50.628574 87.219571 50.369223 87.478922 50.369223 87.971688 L 50.369223 94.09236 C 50.369223 94.299841 50.447028 94.481386 50.602639 94.611061 Z M 49.176211 96.037489 " stroke="#373739" stroke-width="0.215" stroke-opacity="1" stroke-miterlimit="2.613"/><path stroke-linecap="round" transform="matrix(0.150617, 0, 0, 0.150617, 0.48387, 0.00000193548)" fill-opacity="1" fill="#ffffff" fill-rule="evenodd" stroke-linejoin="round" d="M 51.12134 87.219571 L 57.216077 87.219571 C 57.656973 87.219571 57.994129 87.556727 57.994129 87.971688 L 57.994129 94.09236 C 57.994129 94.585126 57.734778 94.844477 57.216077 94.844477 L 51.12134 94.844477 C 50.628574 94.844477 50.369223 94.585126 50.369223 94.09236 L 50.369223 87.971688 C 50.369223 87.556727 50.706379 87.219571 51.12134 87.219571 Z M 51.12134 87.219571 " stroke="#373739" stroke-width="0.215" stroke-opacity="1" stroke-miterlimit="2.613"/><path stroke-linecap="round" transform="matrix(0.150617, 0, 0, 0.150617, 0.48387, 0.00000193548)" fill-opacity="1" fill="#000000" fill-rule="evenodd" stroke-linejoin="round" d="M 59.187141 96.711801 C 59.394622 96.919281 59.524297 97.204567 59.524297 97.515787 L 59.524297 105.89281 C 59.524297 106.515251 59.005596 107.033952 58.35722 107.033952 L 49.980197 107.033952 C 49.668977 107.033952 49.383691 106.904277 49.176211 106.696796 L 50.576704 105.296303 C 50.732314 105.451914 50.913859 105.503784 51.12134 105.503784 L 57.216077 105.503784 C 57.734778 105.503784 57.994129 105.270368 57.994129 104.751667 L 57.994129 98.65693 C 57.994129 98.449449 57.916324 98.267904 57.760713 98.112294 Z M 59.187141 96.711801 " stroke="#373739" stroke-width="0.215" stroke-opacity="1" stroke-miterlimit="2.613"/><path stroke-linecap="round" transform="matrix(0.150617, 0, 0, 0.150617, 0.48387, 0.00000193548)" fill-opacity="1" fill="#ffffff" fill-rule="evenodd" stroke-linejoin="round" d="M 49.176211 106.696796 C 48.942795 106.489316 48.839055 106.20403 48.839055 105.89281 L 48.839055 97.515787 C 48.839055 96.867411 49.357756 96.374645 49.980197 96.374645 L 58.35722 96.374645 C 58.694375 96.374645 58.979661 96.50432 59.187141 96.711801 L 57.760713 98.112294 C 57.631038 97.956683 57.449493 97.878878 57.216077 97.878878 L 51.12134 97.878878 C 50.628574 97.878878 50.369223 98.138229 50.369223 98.65693 L 50.369223 104.751667 C 50.369223 104.959148 50.447028 105.140693 50.602639 105.296303 Z M 49.176211 106.696796 " stroke="#373739" stroke-width="0.215" stroke-opacity="1" stroke-miterlimit="2.613"/><path stroke-linecap="round" transform="matrix(0.150617, 0, 0, 0.150617, 0.48387, 0.00000193548)" fill-opacity="1" fill="#ffffff" fill-rule="evenodd" stroke-linejoin="round" d="M 51.12134 97.904813 L 57.216077 97.904813 C 57.656973 97.904813 57.994129 98.241969 57.994129 98.65693 L 57.994129 104.751667 C 57.994129 105.270368 57.734778 105.503784 57.216077 105.503784 L 51.12134 105.503784 C 50.628574 105.503784 50.369223 105.270368 50.369223 104.751667 L 50.369223 98.65693 C 50.369223 98.241969 50.706379 97.904813 51.12134 97.904813 Z M 51.12134 108.56412 L 57.216077 108.56412 C 57.656973 108.56412 57.994129 108.901276 57.994129 109.316237 L 57.994129 115.436909 C 57.994129 115.929675 57.734778 116.189026 57.216077 116.189026 L 50.369223 109.316237 C 50.369223 108.901276 50.706379 108.56412 51.12134 108.56412 Z M 51.12134 108.56412 " stroke="#373739" stroke-width="0.215" stroke-opacity="1" stroke-miterlimit="2.613"/><path stroke-linecap="round" transform="matrix(0.150617, 0, 0, 0.150617, 0.48387, 0.00000193548)" fill-opacity="1" fill="#000000" fill-rule="evenodd" stroke-linejoin="round" d="M 48.501899 75.367252 C 48.70938 75.574732 48.839055 75.860018 48.839055 76.171239 L 48.839055 84.548261 C 48.839055 85.196637 48.320354 85.689403 47.697913 85.689403 L 39.32089 85.689403 C 38.983735 85.689403 38.724384 85.585663 38.516904 85.352247 L 39.917397 83.951755 C 40.047072 84.08143 40.254552 84.159235 40.462033 84.159235 L 46.55677 84.159235 C 46.971731 84.159235 47.308887 83.822079 47.308887 83.407118 L 47.308887 77.312381 C 47.308887 77.104901 47.257017 76.923355 47.101406 76.767745 Z M 48.501899 75.367252 " stroke="#373739" stroke-width="0.215" stroke-opacity="1" stroke-miterlimit="2.613"/><path stroke-linecap="round" transform="matrix(0.150617, 0, 0, 0.150617, 0.48387, 0.00000193548)" fill-opacity="1" fill="#ffffff" fill-rule="evenodd" stroke-linejoin="round" d="M 38.516904 85.352247 C 38.283488 85.144767 38.179748 84.859481 38.179748 84.548261 L 38.179748 76.171239 C 38.179748 75.548797 38.672514 75.030096 39.32089 75.030096 L 47.697913 75.030096 C 48.009133 75.030096 48.294419 75.159772 48.501899 75.367252 L 47.101406 76.767745 C 46.945796 76.612135 46.764251 76.560264 46.55677 76.560264 L 40.462033 76.560264 C 39.943332 76.560264 39.683981 76.79368 39.683981 77.312381 L 39.683981 83.407118 C 39.683981 83.614599 39.761786 83.796144 39.917397 83.951755 Z M 38.516904 85.352247 " stroke="#373739" stroke-width="0.215" stroke-opacity="1" stroke-miterlimit="2.613"/><path stroke-linecap="round" transform="matrix(0.150617, 0, 0, 0.150617, 0.48387, 0.00000193548)" fill-opacity="1" fill="#ffffff" fill-rule="evenodd" stroke-linejoin="round" d="M 40.462033 76.560264 L 46.55677 76.560264 C 46.971731 76.560264 47.308887 76.89742 47.308887 77.312381 L 47.308887 83.407118 C 47.308887 83.92582 47.075471 84.18517 46.55677 84.18517 L 40.462033 84.18517 C 39.943332 84.18517 39.683981 83.92582 39.683981 83.407118 L 39.683981 77.312381 C 39.683981 76.89742 40.047072 76.560264 40.462033 76.560264 Z M 40.462033 76.560264 " stroke="#373739" stroke-width="0.215" stroke-opacity="1" stroke-miterlimit="2.613"/><path stroke-linecap="round" transform="matrix(0.150617, 0, 0, 0.150617, 0.48387, 0.00000193548)" fill-opacity="1" fill="#000000" fill-rule="evenodd" stroke-linejoin="round" d="M 37.842592 75.367252 C 38.050073 75.574732 38.179748 75.860018 38.179748 76.171239 L 38.179748 84.548261 C 38.179748 85.196637 37.661047 85.689403 37.038606 85.689403 L 28.635648 85.689403 C 28.324428 85.689403 28.039142 85.559728 27.831662 85.352247 L 29.232155 83.951755 C 29.387765 84.08143 29.56931 84.159235 29.776791 84.159235 L 35.871528 84.159235 C 36.312424 84.159235 36.64958 83.822079 36.64958 83.407118 L 36.64958 77.312381 C 36.64958 77.104901 36.571775 76.923355 36.416164 76.767745 Z M 37.842592 75.367252 " stroke="#373739" stroke-width="0.215" stroke-opacity="1" stroke-miterlimit="2.613"/><path stroke-linecap="round" transform="matrix(0.150617, 0, 0, 0.150617, 0.48387, 0.00000193548)" fill-opacity="1" fill="#ffffff" fill-rule="evenodd" stroke-linejoin="round" d="M 27.831662 85.352247 C 27.624181 85.144767 27.494506 84.859481 27.494506 84.548261 L 27.494506 76.171239 C 27.494506 75.548797 28.013207 75.030096 28.635648 75.030096 L 37.038606 75.030096 C 37.349826 75.030096 37.635112 75.159772 37.842592 75.367252 L 36.416164 76.767745 C 36.286489 76.612135 36.104944 76.560264 35.897463 76.560264 L 29.776791 76.560264 C 29.284025 76.560264 29.024674 76.79368 29.024674 77.312381 L 29.024674 83.407118 C 29.024674 83.614599 29.102479 83.796144 29.25809 83.951755 Z M 27.831662 85.352247 " stroke="#373739" stroke-width="0.215" stroke-opacity="1" stroke-miterlimit="2.613"/><path stroke-linecap="round" transform="matrix(0.150617, 0, 0, 0.150617, 0.48387, 0.00000193548)" fill-opacity="1" fill="#ffffff" fill-rule="evenodd" stroke-linejoin="round" d="M 29.776791 76.560264 L 35.871528 76.560264 C 36.312424 76.560264 36.64958 76.89742 36.64958 77.312381 L 36.64958 83.407118 C 36.64958 83.92582 36.390229 84.18517 35.871528 84.18517 L 29.776791 84.18517 C 29.284025 84.18517 29.024674 83.92582 29.024674 83.407118 L 29.024674 77.312381 C 29.024674 76.89742 29.36183 76.560264 29.776791 76.560264 Z M 29.776791 76.560264 " stroke="#373739" stroke-width="0.215" stroke-opacity="1" stroke-miterlimit="2.613"/><path stroke-linecap="round" transform="matrix(0.150617, 0, 0, 0.150617, 0.48387, 0.00000193548)" fill-opacity="1" fill="#000000" fill-rule="evenodd" stroke-linejoin="round" d="M 48.501899 86.026559 C 48.70938 86.234039 48.839055 86.519325 48.839055 86.830545 L 48.839055 95.233503 C 48.839055 95.855944 48.320354 96.374645 47.697913 96.374645 L 39.32089 96.374645 C 38.983735 96.374645 38.724384 96.24497 38.516904 96.037489 L 39.917397 94.611061 C 40.073007 94.766672 40.254552 94.844477 40.462033 94.844477 L 46.55677 94.844477 C 46.971731 94.844477 47.308887 94.507321 47.308887 94.09236 L 47.308887 87.971688 C 47.308887 87.764207 47.257017 87.582662 47.101406 87.452987 Z M 48.501899 86.026559 " stroke="#373739" stroke-width="0.215" stroke-opacity="1" stroke-miterlimit="2.613"/><path stroke-linecap="round" transform="matrix(0.150617, 0, 0, 0.150617, 0.48387, 0.00000193548)" fill-opacity="1" fill="#ffffff" fill-rule="evenodd" stroke-linejoin="round" d="M 38.516904 96.037489 C 38.283488 95.804074 38.179748 95.544723 38.179748 95.233503 L 38.179748 86.830545 C 38.179748 86.208104 38.672514 85.689403 39.32089 85.689403 L 47.697913 85.689403 C 48.009133 85.689403 48.294419 85.819078 48.501899 86.026559 L 47.101406 87.452987 C 46.945796 87.297376 46.764251 87.219571 46.55677 87.219571 L 40.462033 87.219571 C 40.047072 87.219571 39.683981 87.556727 39.683981 87.971688 L 39.683981 94.09236 C 39.683981 94.299841 39.761786 94.481386 39.917397 94.611061 Z M 38.516904 96.037489 " stroke="#373739" stroke-width="0.215" stroke-opacity="1" stroke-miterlimit="2.613"/><path stroke-linecap="round" transform="matrix(0.150617, 0, 0, 0.150617, 0.48387, 0.00000193548)" fill-opacity="1" fill="#ffffff" fill-rule="evenodd" stroke-linejoin="round" d="M 40.462033 87.219571 L 46.55677 87.219571 C 46.971731 87.219571 47.308887 87.556727 47.308887 87.971688 L 47.308887 94.09236 C 47.308887 94.585126 47.075471 94.844477 46.55677 94.844477 L 40.462033 94.844477 C 39.943332 94.844477 39.683981 94.585126 39.683981 94.09236 L 39.683981 87.971688 C 39.683981 87.556727 40.047072 87.219571 40.462033 87.219571 Z M 40.462033 87.219571 " stroke="#373739" stroke-width="0.215" stroke-opacity="1" stroke-miterlimit="2.613"/><path stroke-linecap="round" transform="matrix(0.150617, 0, 0, 0.150617, 0.48387, 0.00000193548)" fill-opacity="1" fill="#000000" fill-rule="evenodd" stroke-linejoin="round" d="M 48.501899 96.711801 C 48.70938 96.919281 48.839055 97.204567 48.839055 97.515787 L 48.839055 105.89281 C 48.839055 106.515251 48.320354 107.033952 47.697913 107.033952 L 39.32089 107.033952 C 38.983735 107.033952 38.724384 106.904277 38.516904 106.696796 L 39.917397 105.296303 C 40.073007 105.451914 40.254552 105.503784 40.462033 105.503784 L 46.55677 105.503784 C 46.971731 105.503784 47.308887 105.166628 47.308887 104.751667 L 47.308887 98.65693 C 47.308887 98.449449 47.257017 98.267904 47.101406 98.112294 Z M 48.501899 96.711801 " stroke="#373739" stroke-width="0.215" stroke-opacity="1" stroke-miterlimit="2.613"/><path stroke-linecap="round" transform="matrix(0.150617, 0, 0, 0.150617, 0.48387, 0.00000193548)" fill-opacity="1" fill="#ffffff" fill-rule="evenodd" stroke-linejoin="round" d="M 38.516904 106.696796 C 38.283488 106.489316 38.179748 106.20403 38.179748 105.89281 L 38.179748 97.515787 C 38.179748 96.867411 38.672514 96.374645 39.32089 96.374645 L 47.697913 96.374645 C 48.009133 96.374645 48.294419 96.50432 48.501899 96.711801 L 47.101406 98.112294 C 46.945796 97.956683 46.764251 97.878878 46.55677 97.878878 L 40.462033 97.878878 C 39.943332 97.878878 39.683981 98.138229 39.683981 98.65693 L 39.683981 104.751667 C 39.683981 104.959148 39.787721 105.140693 39.917397 105.296303 Z M 38.516904 106.696796 " stroke="#373739" stroke-width="0.215" stroke-opacity="1" stroke-miterlimit="2.613"/><path stroke-linecap="round" transform="matrix(0.150617, 0, 0, 0.150617, 0.48387, 0.00000193548)" fill-opacity="1" fill="#ffffff" fill-rule="evenodd" stroke-linejoin="round" d="M 40.462033 97.904813 L 46.55677 97.904813 C 46.971731 97.904813 47.308887 98.241969 47.308887 98.65693 L 47.308887 104.751667 C 47.308887 105.270368 47.075471 105.503784 46.55677 105.503784 L 40.462033 105.503784 C 39.943332 105.503784 39.683981 105.270368 39.683981 104.751667 L 39.683981 98.65693 C 39.683981 98.241969 40.047072 97.904813 40.462033 97.904813 Z M 40.462033 97.904813 " stroke="#373739" stroke-width="0.215" stroke-opacity="1" stroke-miterlimit="2.613"/><path stroke-linecap="round" transform="matrix(0.150617, 0, 0, 0.150617, 0.48387, 0.00000193548)" fill-opacity="1" fill="#000000" fill-rule="evenodd" stroke-linejoin="round" d="M 37.842592 86.026559 C 38.050073 86.234039 38.179748 86.519325 38.179748 86.830545 L 38.179748 95.233503 C 38.179748 95.855944 37.661047 96.374645 37.038606 96.374645 L 28.635648 96.374645 C 28.324428 96.374645 28.039142 96.24497 27.831662 96.037489 L 29.232155 94.611061 C 29.387765 94.766672 29.56931 94.844477 29.776791 94.844477 L 35.871528 94.844477 C 36.390229 94.844477 36.64958 94.585126 36.64958 94.09236 L 36.64958 87.971688 C 36.64958 87.764207 36.571775 87.582662 36.416164 87.452987 Z M 37.842592 86.026559 " stroke="#373739" stroke-width="0.215" stroke-opacity="1" stroke-miterlimit="2.613"/><path stroke-linecap="round" transform="matrix(0.150617, 0, 0, 0.150617, 0.48387, 0.00000193548)" fill-opacity="1" fill="#ffffff" fill-rule="evenodd" stroke-linejoin="round" d="M 27.831662 96.037489 C 27.624181 95.804074 27.494506 95.544723 27.494506 95.233503 L 27.494506 86.830545 C 27.494506 86.208104 28.013207 85.689403 28.635648 85.689403 L 37.038606 85.689403 C 37.349826 85.689403 37.635112 85.819078 37.842592 86.026559 L 36.416164 87.452987 C 36.286489 87.297376 36.104944 87.219571 35.897463 87.219571 L 29.776791 87.219571 C 29.284025 87.219571 29.024674 87.478922 29.024674 87.971688 L 29.024674 94.09236 C 29.024674 94.299841 29.102479 94.481386 29.25809 94.611061 Z M 27.831662 96.037489 " stroke="#373739" stroke-width="0.215" stroke-opacity="1" stroke-miterlimit="2.613"/><path stroke-linecap="round" transform="matrix(0.150617, 0, 0, 0.150617, 0.48387, 0.00000193548)" fill-opacity="1" fill="#ffffff" fill-rule="evenodd" stroke-linejoin="round" d="M 29.776791 87.219571 L 35.871528 87.219571 C 36.312424 87.219571 36.64958 87.556727 36.64958 87.971688 L 36.64958 94.09236 C 36.64958 94.585126 36.390229 94.844477 35.871528 94.844477 L 29.776791 94.844477 C 29.284025 94.844477 29.024674 94.585126 29.024674 94.09236 L 29.024674 87.971688 C 29.024674 87.556727 29.36183 87.219571 29.776791 87.219571 Z M 49.046535 107.552653 C 49.254016 107.215497 49.565236 107.033952 49.980197 107.033952 L 58.35722 107.033952 C 58.694375 107.033952 58.979661 107.163627 59.187141 107.371108 L 57.760713 108.797536 C 57.631038 108.641925 57.449493 108.56412 57.216077 108.56412 L 51.12134 108.56412 C 50.836054 108.56412 50.602639 108.693795 50.472963 108.953146 Z M 49.046535 107.552653 " stroke="#373739" stroke-width="0.215" stroke-opacity="1" stroke-miterlimit="2.613"/><path stroke-linecap="round" transform="matrix(0.150617, 0, 0, 0.150617, 0.48387, 0.00000193548)" fill-opacity="1" fill="#000000" fill-rule="evenodd" stroke-linejoin="round" d="M 57.760713 115.95561 C 57.916324 115.825935 57.994129 115.64439 57.994129 115.436909 L 57.994129 109.316237 C 57.994129 109.108756 57.916324 108.927211 57.760713 108.797536 L 59.187141 107.371108 C 59.394622 107.578588 59.524297 107.863874 59.524297 108.175094 L 59.524297 117.719194 C 58.694375 116.889272 57.916324 116.111221 57.760713 115.95561 Z M 57.760713 115.95561 " stroke="#373739" stroke-width="0.215" stroke-opacity="1" stroke-miterlimit="2.613"/><path stroke-linecap="round" transform="matrix(0.150617, 0, 0, 0.150617, 0.48387, 0.00000193548)" fill-opacity="1" fill="#ffffff" fill-rule="evenodd" stroke-linejoin="round" d="M 25.964338 83.407118 L 25.964338 77.312381 C 25.964338 76.79368 25.730923 76.560264 25.212221 76.560264 L 19.117484 76.560264 C 18.598783 76.560264 18.339432 76.79368 18.339432 77.312381 L 25.212221 84.159235 C 25.730923 84.18517 25.964338 83.92582 25.964338 83.407118 Z M 25.964338 83.407118 " stroke="#373739" stroke-width="0.215" stroke-opacity="1" stroke-miterlimit="2.613"/><path stroke-linecap="round" transform="matrix(0.150617, 0, 0, 0.150617, 0.48387, 0.00000193548)" fill-opacity="1" fill="#000000" fill-rule="evenodd" stroke-linejoin="round" d="M 26.975805 85.507858 C 27.287026 85.300377 27.494506 84.963222 27.494506 84.548261 L 27.494506 76.171239 C 27.494506 75.860018 27.364831 75.574732 27.15735 75.367252 L 25.756858 76.767745 C 25.912468 76.923355 25.964338 77.104901 25.964338 77.312381 L 25.964338 83.407118 C 25.964338 83.692404 25.808728 83.951755 25.601247 84.08143 Z M 26.975805 85.507858 " stroke="#373739" stroke-width="0.215" stroke-opacity="1" stroke-miterlimit="2.613"/><path stroke-linecap="round" transform="matrix(0.150617, 0, 0, 0.150617, 0.48387, 0.00000193548)" fill-opacity="1" fill="#ffffff" fill-rule="evenodd" stroke-linejoin="round" d="M 18.572848 76.767745 C 18.728458 76.612135 18.910004 76.560264 19.117484 76.560264 L 25.212221 76.560264 C 25.419702 76.560264 25.601247 76.63807 25.756858 76.767745 L 27.15735 75.367252 C 26.94987 75.133836 26.664584 75.030096 26.353364 75.030096 L 16.835199 75.030096 C 17.639186 75.834083 18.443173 76.63807 18.572848 76.767745 Z M 18.572848 76.767745 " stroke="#373739" stroke-width="0.215" stroke-opacity="1" stroke-miterlimit="2.613"/><path stroke-linecap="round" transform="matrix(0.150617, 0, 0, 0.150617, 0.48387, 0.00000193548)" fill-opacity="1" fill="#000000" fill-rule="evenodd" stroke-linejoin="round" d="M 38.179748 96.374645 L 16.835199 75.030096 C 18.495043 81.954755 19.324964 88.983155 19.324964 96.115295 C 19.324964 103.403045 18.443173 110.92421 16.835199 117.719194 C 23.604248 116.085286 31.125414 115.203494 38.413164 115.203494 C 45.545303 115.229429 52.573703 116.059351 59.524297 117.719194 Z M 38.179748 96.374645 " stroke="#373739" stroke-width="0.215" stroke-opacity="1" stroke-miterlimit="2.613"/><path fill="#ffffff" d="M 6.160156 14.589844 L 3.167969 11.59375 C 3.601562 12.550781 3.785156 13.273438 3.992188 14.347656 C 4.128906 15.050781 4.210938 15.816406 4.238281 16.511719 C 4.929688 16.535156 5.699219 16.617188 6.398438 16.753906 C 7.472656 16.964844 8.199219 17.148438 9.152344 17.582031 Z M 6.160156 14.589844 " fill-opacity="1" fill-rule="evenodd"/><path fill="#ffffff" d="M 3.421875 17.328125 C 3.5625 16.417969 3.609375 15.414062 3.558594 14.453125 C 3.503906 13.359375 3.511719 13.003906 3.238281 11.980469 C 3.597656 12.976562 3.679688 13.3125 3.832031 14.394531 C 3.941406 15.179688 3.988281 16.019531 3.964844 16.785156 C 4.730469 16.757812 5.570312 16.804688 6.351562 16.914062 C 7.4375 17.066406 7.769531 17.152344 8.765625 17.507812 C 7.742188 17.234375 7.386719 17.246094 6.292969 17.1875 C 5.335938 17.136719 4.332031 17.1875 3.421875 17.328125 Z M 3.421875 17.328125 " fill-opacity="1" fill-rule="evenodd"/><path fill="#000000" d="M 11.203125 12.730469 C 11.082031 12.71875 10.996094 12.714844 10.996094 12.574219 L 10.996094 11.511719 C 10.996094 11.363281 11.101562 11.359375 11.203125 11.355469 L 11.203125 11.300781 L 10.4375 11.300781 L 10.4375 11.355469 C 10.539062 11.363281 10.640625 11.367188 10.640625 11.511719 L 10.640625 12.574219 C 10.640625 12.707031 10.554688 12.71875 10.4375 12.730469 L 10.4375 12.785156 L 11.203125 12.785156 Z M 14.980469 12.730469 C 14.902344 12.730469 14.882812 12.664062 14.882812 12.597656 L 14.882812 11.300781 L 14.507812 11.300781 L 14.507812 11.351562 C 14.605469 11.351562 14.609375 11.457031 14.609375 11.480469 L 14.609375 12.597656 C 14.609375 12.652344 14.589844 12.730469 14.507812 12.730469 L 14.507812 12.785156 L 14.980469 12.785156 Z M 13.398438 11.742188 L 13.398438 11.265625 L 13.332031 11.265625 C 13.320312 11.304688 13.3125 11.339844 13.261719 11.339844 C 13.199219 11.339844 13.09375 11.265625 12.917969 11.265625 C 12.5 11.265625 12.433594 11.566406 12.433594 11.699219 C 12.433594 11.800781 12.433594 11.988281 12.808594 12.167969 L 12.957031 12.238281 C 13.097656 12.308594 13.203125 12.359375 13.203125 12.507812 C 13.203125 12.535156 13.191406 12.753906 12.925781 12.753906 C 12.648438 12.753906 12.519531 12.503906 12.476562 12.285156 L 12.414062 12.285156 L 12.414062 12.824219 L 12.476562 12.824219 C 12.488281 12.789062 12.496094 12.75 12.542969 12.75 C 12.613281 12.75 12.710938 12.824219 12.917969 12.824219 C 13.324219 12.824219 13.460938 12.558594 13.460938 12.367188 C 13.460938 12.128906 13.296875 12 13.222656 11.964844 L 12.898438 11.804688 C 12.714844 11.710938 12.671875 11.664062 12.671875 11.542969 C 12.671875 11.402344 12.792969 11.335938 12.90625 11.335938 C 13.167969 11.335938 13.296875 11.585938 13.335938 11.742188 Z M 11.78125 12.730469 C 11.695312 12.730469 11.671875 12.664062 11.671875 12.597656 L 11.671875 11.300781 L 11.257812 11.300781 L 11.257812 11.351562 C 11.363281 11.351562 11.367188 11.457031 11.367188 11.480469 L 11.367188 12.597656 C 11.367188 12.652344 11.34375 12.730469 11.257812 12.730469 L 11.257812 12.785156 L 11.78125 12.785156 Z M 15.300781 12.164062 C 15.300781 11.863281 15.367188 11.8125 15.441406 11.8125 C 15.511719 11.8125 15.535156 11.867188 15.546875 11.917969 C 15.5625 11.984375 15.5625 12.097656 15.566406 12.164062 Z M 15.769531 12.507812 C 15.734375 12.558594 15.664062 12.65625 15.546875 12.65625 C 15.359375 12.65625 15.316406 12.433594 15.3125 12.246094 L 15.808594 12.246094 C 15.804688 12.128906 15.777344 11.746094 15.433594 11.746094 C 15.207031 11.746094 15.027344 11.953125 15.027344 12.277344 C 15.027344 12.652344 15.230469 12.8125 15.429688 12.8125 C 15.585938 12.8125 15.699219 12.742188 15.820312 12.539062 Z M 13.847656 12.28125 C 13.847656 12.03125 13.855469 11.8125 14.003906 11.8125 C 14.121094 11.8125 14.15625 11.941406 14.15625 12.28125 C 14.15625 12.558594 14.140625 12.746094 14.003906 12.746094 C 13.847656 12.746094 13.847656 12.519531 13.847656 12.28125 Z M 13.554688 12.28125 C 13.554688 12.566406 13.726562 12.8125 14.003906 12.8125 C 14.269531 12.8125 14.445312 12.574219 14.445312 12.28125 C 14.445312 11.976562 14.261719 11.746094 14.003906 11.746094 C 13.726562 11.746094 13.554688 11.996094 13.554688 12.28125 Z M 13.554688 12.28125 " fill-opacity="1" fill-rule="evenodd"/><path stroke-linecap="round" transform="matrix(0.150617, 0, 0, 0.150617, 0.48387, 0.00000193548)" fill-opacity="1" fill="#000000" fill-rule="evenodd" stroke-linejoin="round" d="M 73.866381 105.400044 C 72.232473 104.985083 66.604566 101.924746 66.500826 95.907814 C 66.423021 91.991621 68.445955 86.571195 73.477356 86.519325 C 80.868846 86.519325 84.966584 91.446985 84.966584 100.057423 C 84.966584 102.962149 84.006987 105.555654 82.502754 107.630458 L 84.966584 109.912743 L 84.966584 117.719194 L 69.768643 117.719194 L 66.085865 114.010481 L 66.085865 112.791534 C 71.013526 112.791534 73.866381 105.400044 73.866381 105.400044 Z M 73.866381 105.400044 " stroke="#373739" stroke-width="0.431" stroke-opacity="1" stroke-miterlimit="2.613"/><path stroke-linecap="round" transform="matrix(0.150617, 0, 0, 0.150617, 0.48387, 0.00000193548)" fill-opacity="1" fill="#ffffff" fill-rule="evenodd" stroke-linejoin="round" d="M 80.038924 106.229965 L 81.257872 106.229965 L 81.257872 114.010481 L 66.085865 114.010481 L 66.085865 112.376573 C 70.72824 109.757133 73.555161 105.970615 74.151667 101.354175 C 74.825978 96.34871 75.189069 88.775674 71.791577 88.723804 C 69.016526 88.671934 68.186605 92.588127 68.938721 94.014555 C 70.909785 91.291375 74.436953 91.602595 73.840446 97.334242 C 73.1402 103.79207 66.604566 101.924746 66.500826 95.907814 C 66.423021 91.991621 68.445955 86.571195 73.477356 86.519325 C 78.845912 86.467455 81.335677 90.850479 81.257872 96.374645 C 81.206001 101.535721 78.353146 105.555654 74.281342 107.863874 L 78.405016 107.863874 C 79.312743 107.863874 80.038924 107.137692 80.038924 106.229965 Z M 80.038924 106.229965 " stroke="#373739" stroke-width="0.431" stroke-opacity="1" stroke-miterlimit="2.613"/><path stroke-linecap="round" transform="matrix(0.150617, 0, 0, 0.150617, 0.48387, 0.00000193548)" fill-opacity="1" fill="#000000" fill-rule="evenodd" stroke-linejoin="round" d="M 99.749565 86.519325 L 103.432342 90.202102 L 103.432342 106.618991 L 106.726094 109.912743 L 106.726094 111.546651 L 103.017381 111.546651 L 103.017381 112.376573 L 106.726094 116.059351 L 106.726094 117.719194 L 93.991983 117.719194 L 90.28327 114.010481 L 90.28327 112.791534 L 93.577022 112.791534 L 93.577022 111.546651 L 88.234401 111.546651 L 84.551623 107.863874 Z M 99.749565 86.519325 " stroke="#373739" stroke-width="0.431" stroke-opacity="1" stroke-miterlimit="2.613"/><path stroke-linecap="round" transform="matrix(0.150617, 0, 0, 0.150617, 0.48387, 0.00000193548)" fill-opacity="1" fill="#ffffff" fill-rule="evenodd" stroke-linejoin="round" d="M 102.18746 112.376573 L 103.017381 112.376573 L 103.017381 114.010481 L 90.28327 114.010481 L 90.28327 112.376573 L 91.113192 112.376573 C 91.787503 112.376573 92.384009 112.143157 92.85084 111.650391 C 93.343606 111.183561 93.577022 110.587054 93.577022 109.912743 L 93.577022 107.863874 L 84.551623 107.863874 L 84.551623 106.229965 C 87.119194 103.117759 88.364076 101.17263 90.101725 97.541722 C 92.020919 93.469919 92.824905 90.954219 93.577022 86.519325 C 94.718164 86.830545 95.366541 86.908351 96.533618 86.934286 C 97.804436 86.934286 98.530617 86.856481 99.749565 86.519325 L 99.749565 106.229965 L 103.017381 106.229965 L 103.017381 107.863874 L 99.749565 107.863874 L 99.749565 109.912743 C 99.749565 110.587054 99.98298 111.183561 100.449811 111.650391 C 100.942577 112.143157 101.513148 112.376573 102.18746 112.376573 Z M 102.18746 112.376573 " stroke="#373739" stroke-width="0.431" stroke-opacity="1" stroke-miterlimit="2.613"/><path stroke-linecap="round" transform="matrix(0.150617, 0, 0, 0.150617, 0.48387, 0.00000193548)" fill-opacity="1" fill="#000000" fill-rule="evenodd" stroke-linejoin="round" d="M 86.211467 106.229965 C 88.753102 103.117759 89.997985 101.17263 91.735633 97.541722 C 92.43588 96.08936 93.058321 94.611061 93.577022 93.080893 L 93.577022 106.229965 Z M 131.286589 103.79207 C 131.286589 111.728197 127.266656 117.745129 122.287126 117.745129 C 117.878167 117.745129 113.339532 111.728197 112.898637 111.053885 C 111.109118 108.434445 109.993911 104.673862 109.993911 100.498319 C 109.993911 92.562192 114.039779 86.130299 118.993374 86.130299 C 128.174383 86.130299 131.286589 96.50432 131.286589 103.79207 Z M 131.286589 103.79207 " stroke="#373739" stroke-width="0.431" stroke-opacity="1" stroke-miterlimit="2.613"/><path stroke-linecap="round" transform="matrix(0.150617, 0, 0, 0.150617, 0.48387, 0.00000193548)" fill-opacity="1" fill="#ffffff" fill-rule="evenodd" stroke-linejoin="round" d="M 109.993911 100.498319 C 109.993911 92.562192 114.039779 86.130299 118.993374 86.130299 C 123.972904 86.130299 127.992838 92.562192 127.992838 100.498319 C 127.992838 108.434445 123.972904 114.866338 118.993374 114.866338 C 114.039779 114.866338 109.993911 108.434445 109.993911 100.498319 Z M 109.993911 100.498319 " stroke="#373739" stroke-width="0.431" stroke-opacity="1" stroke-miterlimit="2.613"/><path stroke-linecap="round" transform="matrix(0.150617, 0, 0, 0.150617, 0.48387, 0.00000193548)" fill-opacity="1" fill="#000000" fill-rule="evenodd" stroke-linejoin="round" d="M 119.071179 87.867948 C 120.186387 87.867948 121.094113 88.80161 121.094113 89.942752 L 121.094113 110.97608 C 121.094113 112.117222 120.186387 113.050884 119.071179 113.050884 C 117.930037 113.050884 117.02231 112.117222 117.02231 110.97608 L 117.02231 89.942752 C 117.02231 88.80161 117.930037 87.867948 119.071179 87.867948 Z M 153.486995 113.59552 L 155.97676 116.059351 L 155.97676 117.719194 L 149.000231 117.719194 L 145.706479 114.425442 L 145.706479 117.719194 L 134.632211 117.719194 L 130.923499 114.010481 L 130.923499 112.791534 L 134.632211 112.791534 L 134.632211 91.861946 L 130.923499 88.153233 L 130.923499 86.519325 L 144.876557 86.519325 C 149.804217 86.519325 153.901956 89.813077 153.901956 95.544723 C 153.901956 98.60506 152.475528 101.406045 149.804217 102.521253 C 151.464061 102.936214 153.51293 104.985083 153.51293 106.618991 Z M 153.486995 113.59552 " stroke="#373739" stroke-width="0.431" stroke-opacity="1" stroke-miterlimit="2.613"/><path stroke-linecap="round" transform="matrix(0.150617, 0, 0, 0.150617, 0.48387, 0.00000193548)" fill-opacity="1" fill="#ffffff" fill-rule="evenodd" stroke-linejoin="round" d="M 149.830152 104.570122 L 149.804217 109.912743 C 149.804217 110.587054 150.063568 111.183561 150.530399 111.650391 C 151.023165 112.143157 151.593736 112.376573 152.268047 112.376573 L 152.268047 114.010481 L 147.755348 114.010481 C 146.614206 114.010481 145.654609 113.621456 144.850622 112.817469 C 144.046636 112.013482 143.65761 111.053885 143.65761 109.912743 L 143.65761 103.766135 C 143.65761 103.065889 143.398259 102.495318 142.931428 102.028487 C 142.438662 101.535721 141.868091 101.302305 141.19378 101.302305 L 139.559871 101.302305 L 139.533936 109.912743 C 139.559871 110.587054 139.793287 111.183561 140.260118 111.650391 C 140.752884 112.143157 141.323455 112.376573 141.997766 112.376573 L 141.997766 114.010481 L 130.923499 114.010481 L 130.923499 112.376573 C 131.59781 112.376573 132.194316 112.143157 132.661147 111.650391 C 133.153913 111.183561 133.387329 110.587054 133.387329 109.912743 L 133.387329 90.617063 C 133.387329 89.942752 133.153913 89.372181 132.661147 88.879415 C 132.194316 88.412584 131.59781 88.153233 130.923499 88.153233 L 130.923499 86.519325 L 144.876557 86.519325 C 147.755348 86.519325 150.219178 89.994622 150.219178 93.495854 C 150.219178 96.55619 148.766815 99.357176 146.12144 100.472384 C 147.755348 100.887344 149.830152 102.936214 149.830152 104.570122 Z M 149.830152 104.570122 " stroke="#373739" stroke-width="0.431" stroke-opacity="1" stroke-miterlimit="2.613"/><path stroke-linecap="round" transform="matrix(0.150617, 0, 0, 0.150617, 0.48387, 0.00000193548)" fill-opacity="1" fill="#000000" fill-rule="evenodd" stroke-linejoin="round" d="M 141.19378 88.153233 L 139.559871 88.153233 L 139.559871 99.642462 L 141.19378 99.642462 C 141.868091 99.642462 142.438662 99.409046 142.931428 98.91628 C 143.398259 98.449449 143.65761 97.878878 143.65761 97.178632 L 143.65761 90.617063 C 143.65761 89.942752 143.398259 89.372181 142.931428 88.879415 C 142.438662 88.412584 141.868091 88.153233 141.19378 88.153233 Z M 141.19378 88.153233 " stroke="#373739" stroke-width="0.431" stroke-opacity="1" stroke-miterlimit="2.613"/><path stroke-linecap="round" transform="matrix(0.150617, 0, 0, 0.150617, 0.48387, 0.00000193548)" fill-opacity="1" fill="#000000" fill-rule="evenodd" stroke-linejoin="round" d="M 172.393649 109.497782 L 167.880949 104.985083 L 167.880949 111.546651 Z M 155.561799 114.010481 L 155.561799 112.791534 L 159.244577 112.791534 L 159.244577 91.861946 L 155.561799 88.153233 L 155.561799 86.519325 L 172.80861 86.519325 L 176.491387 90.202102 L 176.491387 98.423514 L 174.857479 98.423514 L 171.148766 94.714802 C 171.148766 94.714802 171.148766 91.861946 167.880949 91.861946 L 167.880949 96.374645 L 169.514858 96.374645 L 173.197635 100.057423 L 173.197635 106.618991 C 173.197635 106.618991 176.517322 109.912743 176.491387 109.912743 L 176.491387 117.719194 L 159.244577 117.719194 Z M 155.561799 114.010481 " stroke="#373739" stroke-width="0.431" stroke-opacity="1" stroke-miterlimit="2.613"/><path stroke-linecap="round" transform="matrix(0.150617, 0, 0, 0.150617, 0.48387, 0.00000193548)" fill-opacity="1" fill="#ffffff" fill-rule="evenodd" stroke-linejoin="round" d="M 167.880949 98.008553 L 167.880949 96.374645 L 169.514858 96.374645 L 169.514858 104.570122 L 167.880949 104.570122 L 167.880949 102.936214 C 167.880949 102.028487 167.128833 101.302305 166.221106 101.302305 L 164.172237 101.302305 L 164.172237 112.376573 L 165.002159 112.376573 C 168.399651 112.376573 171.148766 109.627457 171.148766 106.229965 L 172.782675 106.229965 L 172.782675 114.010481 L 155.561799 114.010481 L 155.561799 112.376573 C 156.236111 112.376573 156.806682 112.143157 157.299448 111.650391 C 157.766279 111.183561 158.025629 110.587054 158.025629 109.912743 L 158.025629 90.617063 C 158.025629 89.942752 157.766279 89.372181 157.299448 88.879415 C 156.806682 88.412584 156.236111 88.153233 155.561799 88.153233 L 155.561799 86.519325 L 172.782675 86.519325 L 172.782675 94.714802 L 171.148766 94.714802 L 171.148766 94.325776 C 171.148766 90.928284 168.399651 88.153233 165.002159 88.153233 L 164.172237 88.153233 L 164.172237 99.642462 L 166.221106 99.642462 C 166.687937 99.642462 167.076963 99.486851 167.388183 99.175631 C 167.699404 98.838475 167.880949 98.475384 167.880949 98.008553 Z M 167.880949 98.008553 " stroke="#373739" stroke-width="0.431" stroke-opacity="1" stroke-miterlimit="2.613"/></svg>