<svg xmlns="http://www.w3.org/2000/svg" xmlns:xlink="http://www.w3.org/1999/xlink" width="40" zoomAndPan="magnify" viewBox="0 0 30 30.000001" height="40" preserveAspectRatio="xMidYMid meet" version="1.0"><defs><clipPath id="0627be936a"><path d="M 0.484375 0 L 29.515625 0 L 29.515625 29.03125 L 0.484375 29.03125 Z M 0.484375 0 " clip-rule="nonzero"/></clipPath></defs><g clip-path="url(#0627be936a)"><path fill="#ffffff" d="M 0.484375 0 L 29.515625 0 L 29.515625 29.03125 L 0.484375 29.03125 Z M 0.484375 0 " fill-opacity="1" fill-rule="nonzero"/><path fill="#ffffff" d="M 0.484375 0 L 29.515625 0 L 29.515625 29.03125 L 0.484375 29.03125 Z M 0.484375 0 " fill-opacity="1" fill-rule="nonzero"/></g><path fill="#000000" d="M 3.164062 16.171875 L 3.164062 15.847656 C 3.023438 15.847656 2.933594 15.800781 2.933594 15.707031 L 2.933594 11.925781 C 2.933594 11.832031 2.886719 11.832031 2.839844 11.832031 L 2.511719 11.832031 L 1.8125 12.160156 L 1.765625 12.203125 L 1.765625 12.4375 L 1.8125 12.4375 L 1.953125 12.53125 C 2 12.578125 2 12.578125 2 12.625 L 2 15.707031 C 2 15.800781 1.90625 15.847656 1.765625 15.847656 L 1.765625 16.171875 Z M 8.066406 16.171875 L 8.066406 15.847656 C 7.925781 15.847656 7.789062 15.800781 7.789062 15.707031 L 7.789062 14.445312 C 8.066406 14.445312 8.347656 16.171875 8.628906 16.171875 L 9.746094 16.171875 L 9.699219 15.894531 C 9.28125 15.847656 9.140625 14.539062 8.8125 14.257812 C 8.765625 14.210938 8.765625 14.210938 8.8125 14.167969 C 9 14.027344 9.46875 13.886719 9.46875 13.046875 C 9.46875 12.066406 8.441406 11.972656 8.441406 11.972656 L 6.433594 11.972656 L 6.433594 12.296875 C 6.574219 12.34375 6.714844 12.390625 6.714844 12.625 L 6.714844 15.707031 C 6.714844 15.800781 6.527344 15.847656 6.433594 15.847656 L 6.433594 16.171875 Z M 7.789062 13.980469 C 7.789062 13.980469 8.347656 13.980469 8.347656 13.464844 L 8.347656 12.953125 C 8.347656 12.4375 7.789062 12.4375 7.789062 12.4375 Z M 7.789062 13.980469 " fill-opacity="1" fill-rule="evenodd"/><path fill="#000000" d="M 10.308594 14.257812 L 10.679688 14.257812 C 10.679688 14.257812 10.773438 13.699219 10.496094 13.699219 C 10.214844 13.699219 10.308594 14.257812 10.308594 14.257812 Z M 10.355469 14.632812 L 11.570312 14.632812 C 11.570312 14.632812 11.664062 14.351562 11.523438 13.980469 C 11.429688 13.652344 11.195312 13.277344 10.589844 13.277344 C 9.980469 13.277344 9.421875 13.792969 9.421875 14.726562 C 9.421875 15.707031 9.980469 16.265625 10.542969 16.265625 C 11.054688 16.265625 11.382812 15.988281 11.617188 15.519531 L 11.382812 15.285156 C 11.382812 15.285156 11.195312 15.566406 10.820312 15.566406 C 10.496094 15.519531 10.261719 15.054688 10.355469 14.632812 Z M 10.355469 14.632812 " fill-opacity="1" fill-rule="evenodd"/><path fill="#000000" d="M 12.875 17.246094 L 12.875 16.875 C 12.78125 16.875 12.6875 16.828125 12.6875 16.734375 L 12.6875 16.21875 C 13.484375 16.40625 14.042969 15.894531 14.042969 14.726562 C 14.042969 13.558594 13.574219 13.324219 13.15625 13.324219 C 12.921875 13.324219 12.734375 13.417969 12.6875 13.511719 L 12.6875 13.371094 C 12.6875 13.324219 12.640625 13.324219 12.59375 13.324219 L 12.269531 13.324219 L 11.570312 13.652344 C 11.523438 13.652344 11.523438 13.699219 11.523438 13.699219 L 11.523438 13.886719 C 11.523438 13.933594 11.570312 13.933594 11.570312 13.933594 L 11.707031 14.027344 C 11.753906 14.074219 11.753906 14.074219 11.753906 14.121094 L 11.753906 16.734375 C 11.753906 16.828125 11.660156 16.875 11.523438 16.875 L 11.523438 17.246094 C 11.988281 17.246094 12.410156 17.246094 12.875 17.246094 Z M 12.640625 14.257812 L 12.640625 15.566406 C 12.640625 15.566406 12.875 16.265625 13.109375 15.566406 C 13.25 15.007812 13.109375 13.511719 12.640625 14.257812 Z M 12.640625 14.257812 " fill-opacity="1" fill-rule="evenodd"/><path fill="#000000" d="M 13.949219 13.511719 L 14.695312 13.371094 L 15.023438 13.371094 L 15.023438 15.519531 C 15.023438 15.707031 15.398438 15.753906 15.398438 15.472656 L 15.398438 14.027344 C 15.398438 14.027344 15.351562 13.792969 15.210938 13.792969 L 15.210938 13.511719 L 15.910156 13.371094 L 16.238281 13.371094 L 16.238281 15.519531 C 16.238281 15.519531 16.226562 15.847656 16.425781 15.847656 L 16.472656 16.125 L 16.097656 16.265625 L 15.398438 16.265625 L 15.398438 16.035156 C 15.210938 16.171875 15.070312 16.265625 14.742188 16.265625 C 14.089844 16.265625 14.183594 15.472656 14.183594 15.472656 L 14.183594 14.027344 C 14.183594 14.027344 14.089844 13.792969 13.949219 13.792969 Z M 17.40625 14.820312 L 17.40625 14.257812 C 17.871094 13.511719 18.011719 15.007812 17.824219 15.566406 C 17.636719 16.265625 17.40625 15.566406 17.40625 15.566406 Z M 17.40625 13.511719 L 17.40625 11.925781 C 17.40625 11.832031 17.40625 11.832031 17.3125 11.832031 L 16.984375 11.832031 L 16.332031 12.160156 L 16.285156 12.203125 L 16.285156 12.4375 L 16.425781 12.53125 C 16.472656 12.578125 16.472656 12.578125 16.472656 12.625 L 16.472656 15.894531 C 16.75 16.265625 17.046875 16.25 17.40625 16.265625 C 18.109375 16.296875 18.804688 15.894531 18.804688 14.726562 C 18.804688 13.558594 18.339844 13.324219 17.917969 13.324219 C 17.683594 13.324219 17.496094 13.417969 17.40625 13.511719 Z M 17.40625 13.511719 " fill-opacity="1" fill-rule="evenodd"/><path fill="#000000" d="M 19.785156 14.820312 L 19.785156 14.257812 C 20.253906 13.511719 20.390625 15.007812 20.207031 15.566406 C 20.019531 16.265625 19.785156 15.566406 19.785156 15.566406 Z M 19.785156 13.511719 L 19.785156 11.925781 C 19.785156 11.832031 19.785156 11.832031 19.691406 11.832031 L 19.363281 11.832031 L 18.710938 12.160156 L 18.664062 12.203125 L 18.664062 12.4375 L 18.804688 12.53125 C 18.851562 12.578125 18.851562 12.578125 18.851562 12.625 L 18.851562 15.894531 C 19.132812 16.265625 19.425781 16.25 19.785156 16.265625 C 20.492188 16.296875 21.1875 15.894531 21.1875 14.726562 C 21.1875 13.558594 20.71875 13.324219 20.296875 13.324219 C 20.066406 13.324219 19.878906 13.417969 19.785156 13.511719 Z M 19.785156 13.511719 " fill-opacity="1" fill-rule="evenodd"/><path fill="#000000" d="M 22.445312 16.171875 L 22.445312 15.847656 C 22.304688 15.847656 22.210938 15.800781 22.210938 15.707031 L 22.210938 11.925781 C 22.210938 11.832031 22.167969 11.832031 22.121094 11.832031 L 21.792969 11.832031 L 21.09375 12.160156 L 21.046875 12.203125 L 21.046875 12.4375 L 21.09375 12.4375 L 21.234375 12.53125 C 21.28125 12.578125 21.28125 12.578125 21.28125 12.625 L 21.28125 15.707031 C 21.28125 15.800781 21.1875 15.847656 21.046875 15.847656 L 21.046875 16.171875 Z M 23.847656 16.171875 L 23.847656 15.847656 C 23.753906 15.847656 23.660156 15.800781 23.660156 15.707031 L 23.660156 13.417969 C 23.660156 13.324219 23.613281 13.324219 23.566406 13.324219 L 23.238281 13.324219 L 22.539062 13.652344 L 22.492188 13.699219 L 22.492188 13.933594 C 22.492188 13.933594 22.539062 13.933594 22.539062 13.980469 L 22.679688 14.074219 C 22.726562 14.074219 22.726562 14.074219 22.726562 14.121094 L 22.726562 15.707031 C 22.726562 15.800781 22.632812 15.847656 22.492188 15.847656 L 22.492188 16.171875 Z M 23.148438 12.8125 C 23.425781 12.8125 23.660156 12.578125 23.660156 12.296875 C 23.660156 12.019531 23.425781 11.785156 23.148438 11.785156 C 22.867188 11.785156 22.632812 12.019531 22.632812 12.296875 C 22.632812 12.578125 22.867188 12.8125 23.148438 12.8125 Z M 23.148438 12.8125 " fill-opacity="1" fill-rule="evenodd"/><path fill="#000000" d="M 25.152344 15.566406 C 25.433594 15.566406 25.527344 15.332031 25.527344 15.332031 L 25.761719 15.613281 C 25.621094 16.035156 25.386719 16.265625 24.828125 16.265625 C 24.265625 16.265625 23.707031 15.707031 23.707031 14.726562 C 23.707031 13.839844 24.21875 13.324219 24.828125 13.277344 C 25.246094 13.230469 25.808594 13.558594 25.761719 13.980469 C 25.714844 14.445312 25.386719 14.445312 25.339844 14.445312 C 25.292969 14.445312 24.96875 14.445312 24.96875 14.074219 C 24.96875 13.699219 24.828125 13.699219 24.828125 13.699219 C 24.640625 13.699219 24.546875 13.933594 24.546875 14.167969 L 24.546875 14.914062 C 24.59375 15.285156 24.828125 15.566406 25.152344 15.566406 Z M 27.910156 13.746094 L 27.910156 15.660156 C 28.046875 15.660156 28.1875 15.566406 28.1875 15.566406 L 28.234375 15.566406 L 28.234375 15.941406 C 28.234375 16.035156 28.046875 16.265625 27.628906 16.265625 C 27.207031 16.265625 27.066406 15.941406 27.066406 15.941406 C 26.835938 16.359375 26.320312 16.265625 26.132812 16.171875 C 25.996094 16.125 25.761719 15.941406 25.808594 15.425781 C 25.855469 14.914062 26.929688 14.539062 27.066406 14.445312 L 27.066406 13.746094 C 27.019531 13.605469 26.835938 13.652344 26.742188 13.746094 C 26.601562 13.933594 26.742188 14.167969 26.742188 14.167969 L 25.949219 14.398438 C 25.714844 13.511719 26.460938 13.277344 26.976562 13.277344 C 27.816406 13.277344 27.910156 13.746094 27.910156 13.746094 Z M 27.066406 15.519531 L 27.066406 14.914062 C 27.019531 14.914062 26.648438 15.191406 26.648438 15.378906 C 26.695312 15.613281 26.835938 15.660156 27.066406 15.519531 Z M 5.171875 13.746094 L 5.171875 15.660156 C 5.3125 15.660156 5.453125 15.566406 5.453125 15.566406 L 5.5 15.566406 L 5.5 15.941406 C 5.5 16.035156 5.3125 16.265625 4.890625 16.265625 C 4.472656 16.265625 4.332031 15.941406 4.332031 15.941406 C 4.097656 16.359375 3.585938 16.265625 3.398438 16.171875 C 3.257812 16.125 3.023438 15.941406 3.070312 15.425781 C 3.117188 14.914062 4.191406 14.539062 4.332031 14.445312 L 4.332031 13.746094 C 4.285156 13.605469 4.097656 13.652344 4.003906 13.746094 C 3.867188 13.933594 4.003906 14.167969 4.003906 14.167969 L 3.210938 14.398438 C 2.976562 13.511719 3.726562 13.277344 4.238281 13.277344 C 5.078125 13.277344 5.171875 13.746094 5.171875 13.746094 Z M 4.332031 15.519531 L 4.332031 14.914062 C 4.285156 14.914062 3.914062 15.191406 3.957031 15.378906 C 3.957031 15.613281 4.097656 15.660156 4.332031 15.519531 Z M 4.332031 15.519531 " fill-opacity="1" fill-rule="evenodd"/></svg>