<svg xmlns="http://www.w3.org/2000/svg" xmlns:xlink="http://www.w3.org/1999/xlink" width="40" zoomAndPan="magnify" viewBox="0 0 30 30.000001" height="40" preserveAspectRatio="xMidYMid meet" version="1.0"><defs><clipPath id="4358a5d1d3"><path d="M 0.484375 0 L 29.515625 0 L 29.515625 29.03125 L 0.484375 29.03125 Z M 0.484375 0 " clip-rule="nonzero"/></clipPath></defs><g clip-path="url(#4358a5d1d3)"><path fill="#ffffff" d="M 0.484375 0 L 29.515625 0 L 29.515625 29.03125 L 0.484375 29.03125 Z M 0.484375 0 " fill-opacity="1" fill-rule="nonzero"/><path fill="#ffffff" d="M 0.484375 0 L 29.515625 0 L 29.515625 29.03125 L 0.484375 29.03125 Z M 0.484375 0 " fill-opacity="1" fill-rule="nonzero"/></g><path fill="#000000" d="M 16.394531 15.023438 C 16.257812 15.023438 16.117188 15.027344 15.980469 15.03125 C 15.925781 15.195312 15.851562 15.355469 15.863281 15.527344 C 15.953125 15.589844 16.105469 15.570312 16.21875 15.582031 L 16.21875 15.941406 C 15.800781 15.949219 15.378906 15.953125 14.960938 15.957031 C 14.960938 15.828125 14.964844 15.707031 14.96875 15.582031 C 15.144531 15.558594 15.25 15.570312 15.347656 15.417969 C 15.839844 13.933594 15.839844 13.933594 16.136719 13.113281 C 16.222656 13.109375 16.308594 13.109375 16.394531 13.109375 C 16.597656 13.105469 16.804688 13.101562 17.007812 13.101562 C 17.496094 14.582031 17.496094 14.582031 17.742188 15.386719 C 17.875 15.59375 17.910156 15.578125 18.167969 15.605469 L 18.167969 15.976562 L 17.71875 15.976562 C 16.742188 15.949219 16.742188 15.949219 16.5625 15.929688 C 16.566406 15.804688 16.574219 15.6875 16.578125 15.574219 C 16.808594 15.5625 16.808594 15.5625 16.90625 15.535156 C 17 15.441406 16.855469 15.121094 16.824219 15.015625 C 16.679688 15.019531 16.539062 15.019531 16.394531 15.023438 Z M 10.910156 16.035156 C 10.617188 15.980469 10.617188 15.980469 10.398438 15.917969 C 10.1875 15.804688 10.1875 15.804688 10.132812 15.796875 C 10.09375 15.859375 10.054688 15.921875 10.015625 15.988281 C 9.898438 15.992188 9.785156 15.996094 9.675781 16.003906 L 9.675781 14.859375 L 10.058594 14.859375 C 10.183594 15.425781 10.695312 15.722656 11.25 15.558594 C 11.546875 15.386719 11.570312 15.128906 11.25 14.957031 C 10.449219 14.769531 9.511719 14.699219 9.648438 13.683594 C 9.871094 12.957031 10.742188 12.914062 11.371094 13.070312 C 11.476562 13.125 11.574219 13.175781 11.679688 13.226562 C 11.710938 13.167969 11.738281 13.105469 11.773438 13.046875 C 11.890625 13.046875 12.011719 13.046875 12.132812 13.050781 L 12.132812 14.089844 C 11.996094 14.085938 11.867188 14.078125 11.738281 14.074219 C 11.585938 13.492188 11.042969 13.246094 10.503906 13.511719 C 10.351562 13.695312 10.390625 13.851562 10.585938 13.96875 C 11.371094 14.203125 12.351562 14.203125 12.273438 15.246094 C 12.085938 15.917969 11.527344 15.996094 10.910156 16.035156 Z M 18.476562 15.988281 C 18.425781 15.984375 18.371094 15.980469 18.320312 15.976562 L 18.320312 15.605469 C 18.496094 15.605469 18.632812 15.628906 18.726562 15.476562 C 18.730469 14.875 18.738281 14.273438 18.746094 13.671875 C 18.683594 13.398438 18.609375 13.464844 18.339844 13.453125 L 18.339844 13.082031 L 19.847656 13.082031 C 20.011719 13.664062 20.179688 14.253906 20.34375 14.84375 L 20.375 14.84375 C 20.550781 14.257812 20.71875 13.671875 20.898438 13.097656 C 21.398438 13.097656 21.90625 13.097656 22.417969 13.101562 L 22.417969 13.472656 C 22.257812 13.472656 22.101562 13.4375 22.003906 13.5625 C 21.988281 13.886719 21.988281 13.886719 21.988281 15.429688 C 21.996094 15.464844 22.007812 15.5 22.015625 15.535156 C 22.148438 15.59375 22.253906 15.601562 22.398438 15.605469 L 22.398438 15.976562 C 21.890625 15.976562 21.390625 15.976562 20.890625 15.980469 C 20.886719 15.851562 20.882812 15.734375 20.882812 15.613281 C 21.035156 15.605469 21.148438 15.617188 21.214844 15.476562 L 21.214844 13.589844 C 20.972656 14.386719 20.738281 15.175781 20.503906 15.976562 L 19.894531 15.988281 C 19.675781 15.183594 19.457031 14.390625 19.242188 13.589844 L 19.214844 13.589844 C 19.214844 14.222656 19.214844 14.855469 19.222656 15.492188 C 19.289062 15.628906 19.421875 15.597656 19.558594 15.609375 C 19.558594 15.738281 19.558594 15.859375 19.558594 15.988281 C 19.195312 15.988281 18.832031 15.988281 18.476562 15.988281 Z M 13.164062 15.957031 C 13.09375 15.953125 13.019531 15.949219 12.945312 15.941406 C 12.949219 15.820312 12.957031 15.699219 12.960938 15.582031 C 13.097656 15.570312 13.339844 15.601562 13.402344 15.464844 C 13.398438 14.800781 13.398438 14.140625 13.398438 13.480469 C 12.941406 13.480469 12.804688 13.722656 12.796875 14.167969 L 12.410156 14.167969 C 12.402344 13.804688 12.398438 13.445312 12.394531 13.085938 C 13.332031 13.089844 14.273438 13.09375 15.21875 13.101562 C 15.21875 13.453125 15.21875 13.808594 15.222656 14.167969 L 14.832031 14.179688 C 14.820312 13.847656 14.753906 13.628906 14.449219 13.492188 C 14.371094 13.480469 14.292969 13.476562 14.21875 13.472656 C 14.222656 15.429688 14.222656 15.429688 14.238281 15.492188 C 14.332031 15.589844 14.542969 15.570312 14.679688 15.585938 L 14.679688 15.957031 Z M 1.996094 15.941406 C 1.921875 15.9375 1.847656 15.933594 1.78125 15.929688 L 1.78125 15.554688 C 1.972656 15.554688 2.113281 15.59375 2.1875 15.417969 C 2.1875 13.625 2.1875 13.625 2.171875 13.519531 C 2.09375 13.382812 1.910156 13.425781 1.765625 13.425781 L 1.765625 13.035156 C 2.332031 13.039062 2.894531 13.027344 3.464844 13.035156 L 3.464844 13.425781 C 3.15625 13.429688 3.035156 13.355469 3.007812 13.671875 C 3.007812 14.300781 3.011719 14.925781 3.019531 15.554688 C 3.34375 15.554688 3.675781 15.589844 3.9375 15.382812 C 4.058594 15.175781 4.089844 14.992188 4.128906 14.75 L 4.503906 14.75 L 4.515625 15.929688 Z M 6.757812 15.941406 L 6.402344 15.929688 L 6.402344 15.554688 C 6.511719 15.554688 6.664062 15.5625 6.757812 15.507812 C 6.757812 15.335938 6.703125 15.191406 6.648438 15.023438 C 6.449219 15.015625 6.367188 15.007812 6.222656 15.007812 C 6.128906 15.007812 6.003906 15.007812 5.808594 15.011719 C 5.757812 15.152344 5.664062 15.34375 5.683594 15.5 C 5.773438 15.570312 5.953125 15.550781 6.0625 15.554688 L 6.0625 15.929688 L 4.777344 15.929688 L 4.777344 15.554688 C 5.128906 15.554688 5.136719 15.453125 5.265625 15.152344 C 5.492188 14.457031 5.71875 13.765625 5.949219 13.070312 L 6.222656 13.070312 C 6.425781 13.074219 6.628906 13.078125 6.835938 13.078125 C 7.082031 13.851562 7.328125 14.625 7.582031 15.398438 C 7.675781 15.585938 7.800781 15.558594 7.992188 15.570312 L 7.992188 15.941406 Z M 6.222656 14.644531 L 6.539062 14.644531 C 6.355469 14.121094 6.355469 14.121094 6.246094 13.75 C 6.238281 13.75 6.230469 13.753906 6.222656 13.753906 C 6.21875 13.757812 6.214844 13.757812 6.210938 13.761719 C 6.105469 14.054688 6.003906 14.347656 5.902344 14.640625 Z M 27.066406 13.15625 C 27.808594 15.445312 27.808594 15.445312 27.847656 15.515625 C 27.964844 15.628906 28.066406 15.613281 28.222656 15.628906 C 28.226562 15.75 28.230469 15.875 28.234375 16.003906 L 26.632812 16.003906 L 26.632812 15.617188 C 26.765625 15.617188 26.898438 15.628906 27.003906 15.554688 C 27.003906 15.402344 26.929688 15.230469 26.878906 15.089844 L 26.039062 15.089844 C 25.886719 15.5625 25.792969 15.605469 26.289062 15.617188 L 26.289062 15.988281 C 25.871094 15.992188 25.445312 15.996094 25.023438 16.003906 L 25.023438 15.617188 C 25.132812 15.613281 25.261719 15.609375 25.363281 15.554688 L 26.210938 13.15625 Z M 26.753906 14.707031 L 26.464844 13.824219 L 26.464844 13.828125 L 26.171875 14.707031 Z M 24.347656 13.140625 C 24.570312 13.148438 24.6875 13.152344 24.902344 13.167969 C 25.429688 13.3125 25.617188 13.507812 25.617188 14.074219 C 25.449219 14.703125 24.90625 14.753906 24.347656 14.746094 C 24.210938 14.746094 24.078125 14.738281 23.945312 14.738281 C 23.945312 14.960938 23.886719 15.367188 23.972656 15.585938 C 24.097656 15.613281 24.21875 15.625 24.347656 15.628906 C 24.367188 15.632812 24.386719 15.632812 24.410156 15.632812 C 24.410156 15.746094 24.410156 15.859375 24.414062 15.980469 L 24.347656 15.980469 C 24 15.984375 23.65625 15.992188 23.3125 16.003906 C 22.746094 15.980469 22.746094 15.980469 22.710938 15.988281 L 22.710938 15.605469 C 22.878906 15.605469 23.050781 15.644531 23.117188 15.476562 L 23.117188 13.609375 C 23.0625 13.4375 22.859375 13.484375 22.710938 13.472656 L 22.710938 13.101562 C 23.65625 13.121094 24.078125 13.132812 24.347656 13.140625 Z M 24.347656 14.371094 L 24.4375 14.371094 C 24.761719 14.246094 24.769531 14.121094 24.769531 13.792969 C 24.695312 13.570312 24.535156 13.507812 24.347656 13.496094 C 24.214844 13.484375 24.066406 13.5 23.925781 13.5 C 23.929688 13.792969 23.9375 14.085938 23.945312 14.382812 Z M 16.394531 13.753906 C 16.390625 13.75 16.386719 13.746094 16.386719 13.742188 C 16.289062 14.042969 16.191406 14.34375 16.09375 14.644531 C 16.195312 14.648438 16.296875 14.652344 16.394531 14.652344 C 16.476562 14.65625 16.558594 14.65625 16.636719 14.660156 L 16.695312 14.660156 C 16.636719 14.386719 16.542969 13.964844 16.394531 13.753906 Z M 16.394531 13.753906 " fill-opacity="1" fill-rule="evenodd"/></svg>