<svg xmlns="http://www.w3.org/2000/svg" xmlns:xlink="http://www.w3.org/1999/xlink" width="40" zoomAndPan="magnify" viewBox="0 0 30 30.000001" height="40" preserveAspectRatio="xMidYMid meet" version="1.0"><defs><clipPath id="b4a7fbcbab"><path d="M 0.484375 0 L 29.515625 0 L 29.515625 29.03125 L 0.484375 29.03125 Z M 0.484375 0 " clip-rule="nonzero"/></clipPath><clipPath id="af07b1cec7"><path d="M 3 11 L 13 11 L 13 18.5625 L 3 18.5625 Z M 3 11 " clip-rule="nonzero"/></clipPath><clipPath id="5f48874f06"><path d="M 22 11 L 26.859375 11 L 26.859375 16 L 22 16 Z M 22 11 " clip-rule="nonzero"/></clipPath><clipPath id="e196b19a01"><path d="M 23 15 L 26.859375 15 L 26.859375 18 L 23 18 Z M 23 15 " clip-rule="nonzero"/></clipPath></defs><g clip-path="url(#b4a7fbcbab)"><path fill="#ffffff" d="M 0.484375 0 L 29.515625 0 L 29.515625 29.03125 L 0.484375 29.03125 Z M 0.484375 0 " fill-opacity="1" fill-rule="nonzero"/><path fill="#ffffff" d="M 0.484375 0 L 29.515625 0 L 29.515625 29.03125 L 0.484375 29.03125 Z M 0.484375 0 " fill-opacity="1" fill-rule="nonzero"/></g><g clip-path="url(#af07b1cec7)"><path fill="#000000" d="M 10.078125 13.238281 C 10.050781 13.246094 10.023438 13.265625 10.007812 13.296875 C 9.859375 13.554688 9.710938 13.832031 9.5625 14.128906 C 8.589844 16.097656 8.027344 17.246094 7.882812 17.578125 C 7.828125 17.695312 7.761719 17.78125 7.675781 17.828125 C 7.589844 17.875 7.484375 17.839844 7.445312 17.75 L 5.507812 13.441406 C 5.433594 13.277344 5.378906 13.28125 5.347656 13.453125 C 5.34375 13.464844 5.339844 13.511719 5.332031 13.585938 C 5.253906 14.308594 5.183594 15.136719 5.125 16.074219 C 5.109375 16.300781 5.105469 16.554688 5.117188 16.832031 C 5.132812 17.300781 5.378906 17.578125 5.855469 17.667969 C 5.953125 17.6875 6.007812 17.757812 6.015625 17.878906 C 6.015625 17.882812 6.015625 17.882812 6.011719 17.886719 C 5.996094 17.972656 5.914062 18.027344 5.824219 18.015625 C 5.175781 17.9375 4.546875 17.917969 3.933594 17.960938 C 3.828125 17.96875 3.769531 17.917969 3.757812 17.8125 C 3.753906 17.8125 3.753906 17.808594 3.753906 17.804688 C 3.746094 17.703125 3.792969 17.636719 3.894531 17.609375 C 4.210938 17.535156 4.40625 17.375 4.484375 17.132812 C 4.566406 16.878906 4.617188 16.617188 4.640625 16.347656 C 4.785156 14.613281 4.941406 12.960938 5.113281 11.386719 C 5.113281 11.378906 5.117188 11.351562 5.117188 11.300781 C 5.125 11.199219 5.171875 11.132812 5.257812 11.105469 C 5.367188 11.066406 5.488281 11.125 5.542969 11.238281 L 7.828125 16.296875 C 7.835938 16.3125 7.847656 16.328125 7.863281 16.335938 C 7.925781 16.382812 7.976562 16.367188 8.015625 16.285156 C 9.503906 13.292969 10.347656 11.605469 10.558594 11.226562 C 10.640625 11.074219 10.757812 11.046875 10.910156 11.140625 C 10.996094 11.195312 11.039062 11.261719 11.046875 11.339844 C 11.160156 13.179688 11.238281 14.828125 11.28125 16.285156 C 11.289062 16.582031 11.300781 16.796875 11.320312 16.921875 C 11.394531 17.464844 11.863281 17.519531 12.304688 17.601562 C 12.410156 17.621094 12.457031 17.683594 12.457031 17.789062 C 12.457031 17.789062 12.457031 17.792969 12.457031 17.796875 C 12.457031 17.882812 12.40625 17.925781 12.292969 17.925781 L 9.6875 17.925781 C 9.648438 17.925781 9.625 17.914062 9.609375 17.890625 C 9.582031 17.84375 9.570312 17.785156 9.582031 17.71875 C 9.589844 17.6875 9.605469 17.664062 9.628906 17.644531 C 9.671875 17.617188 9.753906 17.574219 9.878906 17.511719 C 10.148438 17.382812 10.277344 17.15625 10.273438 16.851562 C 10.261719 15.785156 10.222656 14.597656 10.152344 13.292969 C 10.148438 13.253906 10.113281 13.230469 10.078125 13.238281 Z M 10.078125 13.238281 " fill-opacity="1" fill-rule="nonzero"/></g><path fill="#000000" d="M 15.550781 13.8125 C 15.441406 14.078125 15.371094 14.289062 15.339844 14.441406 C 15.332031 14.492188 15.289062 14.527344 15.238281 14.527344 L 14.976562 14.527344 C 14.945312 14.527344 14.925781 14.496094 14.9375 14.46875 L 16.40625 11.160156 C 16.417969 11.136719 16.4375 11.117188 16.460938 11.109375 C 16.527344 11.089844 16.578125 11.117188 16.609375 11.191406 C 16.828125 11.726562 17.28125 12.789062 17.964844 14.382812 C 18.054688 14.59375 18.175781 14.695312 18.378906 14.742188 C 18.4375 14.757812 18.46875 14.792969 18.46875 14.851562 L 18.46875 14.902344 C 18.46875 14.957031 18.417969 14.996094 18.367188 14.988281 C 17.898438 14.917969 17.425781 14.917969 16.949219 14.980469 C 16.917969 14.988281 16.890625 14.976562 16.871094 14.949219 C 16.84375 14.910156 16.835938 14.871094 16.847656 14.835938 C 16.855469 14.8125 16.882812 14.792969 16.921875 14.769531 C 17.035156 14.714844 17.1875 14.648438 17.214844 14.527344 C 17.234375 14.449219 17.230469 14.382812 17.210938 14.332031 C 17.101562 14.042969 17.027344 13.859375 16.988281 13.78125 C 16.9375 13.6875 16.851562 13.640625 16.730469 13.636719 C 16.414062 13.628906 16.152344 13.628906 15.945312 13.636719 C 15.773438 13.640625 15.617188 13.648438 15.550781 13.8125 Z M 15.78125 13.269531 C 15.765625 13.308594 15.792969 13.355469 15.835938 13.355469 L 16.730469 13.355469 C 16.773438 13.355469 16.804688 13.3125 16.789062 13.273438 L 16.34375 12.207031 C 16.320312 12.160156 16.253906 12.160156 16.230469 12.207031 Z M 15.78125 13.269531 " fill-opacity="1" fill-rule="nonzero"/><path fill="#000000" d="M 20.269531 13.289062 C 20.179688 13.1875 19.917969 12.894531 19.484375 12.414062 C 19.433594 12.363281 19.394531 12.363281 19.355469 12.421875 C 19.347656 12.433594 19.34375 12.464844 19.339844 12.519531 C 19.320312 12.785156 19.320312 13.253906 19.339844 13.925781 C 19.347656 14.234375 19.339844 14.5 19.566406 14.640625 C 19.613281 14.667969 19.738281 14.703125 19.945312 14.75 C 19.988281 14.757812 20.019531 14.785156 20.035156 14.824219 C 20.046875 14.847656 20.050781 14.867188 20.042969 14.878906 C 20.019531 14.945312 19.972656 14.972656 19.910156 14.964844 C 19.511719 14.917969 19.097656 14.921875 18.667969 14.980469 C 18.617188 14.988281 18.570312 14.953125 18.566406 14.902344 C 18.566406 14.894531 18.5625 14.886719 18.5625 14.875 C 18.558594 14.804688 18.589844 14.761719 18.65625 14.742188 C 18.886719 14.679688 19.007812 14.53125 19.019531 14.289062 C 19.046875 13.5 19.054688 12.492188 19.050781 11.261719 C 19.046875 11.195312 19.09375 11.136719 19.160156 11.125 C 19.210938 11.113281 19.265625 11.144531 19.332031 11.21875 C 19.894531 11.863281 20.371094 12.410156 20.765625 12.863281 C 20.855469 12.96875 21.117188 13.257812 21.554688 13.738281 C 21.601562 13.792969 21.644531 13.789062 21.679688 13.730469 C 21.6875 13.71875 21.695312 13.6875 21.699219 13.632812 C 21.714844 13.367188 21.714844 12.898438 21.699219 12.226562 C 21.691406 11.917969 21.695312 11.65625 21.46875 11.515625 C 21.425781 11.484375 21.296875 11.449219 21.09375 11.402344 C 21.050781 11.394531 21.019531 11.371094 21 11.328125 C 20.988281 11.304688 20.988281 11.289062 20.992188 11.273438 C 21.015625 11.210938 21.0625 11.179688 21.128906 11.1875 C 21.527344 11.238281 21.9375 11.230469 22.367188 11.171875 C 22.417969 11.164062 22.464844 11.203125 22.46875 11.253906 C 22.472656 11.257812 22.472656 11.265625 22.472656 11.277344 C 22.480469 11.347656 22.449219 11.390625 22.378906 11.410156 C 22.148438 11.472656 22.027344 11.625 22.019531 11.867188 C 21.992188 12.652344 21.980469 13.660156 21.988281 14.890625 C 21.988281 14.957031 21.941406 15.015625 21.878906 15.03125 C 21.828125 15.039062 21.769531 15.007812 21.707031 14.933594 C 21.140625 14.289062 20.664062 13.742188 20.269531 13.289062 Z M 20.269531 13.289062 " fill-opacity="1" fill-rule="nonzero"/><g clip-path="url(#5f48874f06)"><path fill="#000000" d="M 26.042969 12.191406 C 26.523438 13.164062 26.105469 14.355469 25.105469 14.851562 C 24.105469 15.347656 22.90625 14.960938 22.421875 13.988281 C 21.9375 13.015625 22.359375 11.828125 23.359375 11.332031 C 24.359375 10.835938 25.558594 11.21875 26.042969 12.191406 Z M 22.964844 13.289062 C 23.085938 14.070312 23.5625 14.910156 24.488281 14.765625 C 25.417969 14.621094 25.617188 13.679688 25.496094 12.894531 C 25.375 12.113281 24.898438 11.273438 23.96875 11.417969 C 23.042969 11.5625 22.84375 12.507812 22.964844 13.289062 Z M 22.964844 13.289062 " fill-opacity="1" fill-rule="nonzero"/></g><path fill="#000000" d="M 12.679688 13.078125 C 12.679688 13.785156 12.683594 14.175781 12.683594 14.257812 C 12.699219 14.558594 12.859375 14.714844 13.167969 14.726562 C 13.253906 14.730469 13.296875 14.773438 13.296875 14.863281 L 13.296875 14.890625 C 13.296875 14.941406 13.253906 14.980469 13.207031 14.976562 C 12.652344 14.929688 12.175781 14.929688 11.777344 14.980469 C 11.664062 14.992188 11.59375 14.960938 11.570312 14.882812 C 11.558594 14.84375 11.574219 14.800781 11.609375 14.785156 C 11.714844 14.726562 11.894531 14.675781 11.945312 14.574219 C 11.996094 14.46875 12.023438 14.363281 12.027344 14.257812 C 12.03125 14.058594 12.03125 13.671875 12.03125 13.089844 C 12.03125 12.382812 12.027344 11.992188 12.023438 11.910156 C 12.007812 11.609375 11.847656 11.453125 11.542969 11.441406 C 11.457031 11.4375 11.414062 11.390625 11.414062 11.304688 L 11.414062 11.273438 C 11.414062 11.226562 11.453125 11.1875 11.503906 11.191406 C 12.058594 11.238281 12.535156 11.238281 12.933594 11.1875 C 13.046875 11.175781 13.117188 11.207031 13.140625 11.285156 C 13.152344 11.324219 13.136719 11.367188 13.101562 11.382812 C 12.996094 11.441406 12.816406 11.488281 12.765625 11.59375 C 12.714844 11.699219 12.6875 11.800781 12.683594 11.910156 C 12.679688 12.109375 12.679688 12.496094 12.679688 13.078125 Z M 12.679688 13.078125 " fill-opacity="1" fill-rule="nonzero"/><path fill="#000000" d="M 14.585938 14.445312 C 14.589844 14.542969 14.660156 14.625 14.757812 14.636719 C 15.199219 14.699219 15.859375 14.5625 16.101562 14.140625 C 16.246094 13.886719 16.324219 13.90625 16.34375 14.191406 C 16.347656 14.230469 16.316406 14.324219 16.253906 14.472656 C 16.125 14.773438 15.90625 14.945312 15.597656 14.980469 C 15.542969 14.984375 15.234375 14.972656 14.675781 14.945312 C 14.457031 14.933594 14.269531 14.9375 14.113281 14.949219 C 13.871094 14.96875 13.679688 14.980469 13.539062 14.976562 C 13.507812 14.976562 13.480469 14.960938 13.460938 14.933594 C 13.441406 14.90625 13.4375 14.875 13.445312 14.839844 C 13.453125 14.808594 13.46875 14.785156 13.5 14.769531 C 13.757812 14.632812 13.902344 14.53125 13.902344 14.234375 C 13.910156 13.59375 13.910156 12.816406 13.902344 11.902344 C 13.902344 11.664062 13.765625 11.496094 13.535156 11.460938 C 13.46875 11.449219 13.410156 11.429688 13.347656 11.402344 C 13.304688 11.382812 13.28125 11.328125 13.304688 11.28125 C 13.332031 11.21875 13.394531 11.191406 13.492188 11.199219 C 14 11.242188 14.472656 11.238281 14.90625 11.1875 C 14.953125 11.183594 14.980469 11.207031 14.992188 11.265625 C 14.996094 11.273438 14.996094 11.28125 14.996094 11.300781 C 14.992188 11.367188 14.957031 11.40625 14.890625 11.425781 C 14.664062 11.484375 14.582031 11.648438 14.582031 11.890625 C 14.574219 13.273438 14.574219 14.125 14.585938 14.445312 Z M 14.585938 14.445312 " fill-opacity="1" fill-rule="nonzero"/><path fill="#000000" d="M 16.558594 16.894531 C 16.304688 16.609375 16.140625 16.4375 16.0625 16.375 C 16.042969 16.359375 16.015625 16.375 16.011719 16.398438 C 16.003906 16.65625 16.003906 16.910156 16.011719 17.15625 C 16.023438 17.460938 15.984375 17.710938 16.378906 17.75 C 16.414062 17.75 16.429688 17.769531 16.429688 17.804688 L 16.433594 17.835938 C 16.433594 17.863281 16.417969 17.875 16.394531 17.875 L 15.601562 17.875 C 15.578125 17.875 15.558594 17.867188 15.546875 17.84375 C 15.542969 17.835938 15.539062 17.828125 15.539062 17.820312 C 15.539062 17.792969 15.554688 17.769531 15.578125 17.761719 C 15.851562 17.671875 15.820312 17.488281 15.820312 17.246094 C 15.824219 16.742188 15.828125 16.226562 15.835938 15.695312 C 15.835938 15.660156 15.855469 15.632812 15.886719 15.621094 C 15.917969 15.613281 15.949219 15.625 15.984375 15.664062 C 16.285156 15.984375 16.582031 16.3125 16.875 16.644531 C 17.125 16.929688 17.292969 17.105469 17.371094 17.164062 C 17.390625 17.179688 17.417969 17.167969 17.417969 17.140625 C 17.425781 16.882812 17.425781 16.632812 17.417969 16.386719 C 17.410156 16.078125 17.449219 15.828125 17.054688 15.792969 C 17.019531 15.789062 17 15.769531 17 15.734375 L 17 15.703125 C 17 15.679688 17.011719 15.667969 17.039062 15.667969 L 17.828125 15.664062 C 17.851562 15.664062 17.871094 15.675781 17.882812 15.695312 C 17.886719 15.703125 17.890625 15.710938 17.890625 15.71875 C 17.894531 15.746094 17.878906 15.773438 17.851562 15.78125 C 17.582031 15.871094 17.613281 16.054688 17.609375 16.296875 C 17.605469 16.800781 17.601562 17.316406 17.597656 17.847656 C 17.59375 17.878906 17.574219 17.910156 17.542969 17.917969 C 17.515625 17.929688 17.480469 17.914062 17.445312 17.878906 C 17.144531 17.554688 16.847656 17.226562 16.558594 16.894531 Z M 16.558594 16.894531 " fill-opacity="1" fill-rule="nonzero"/><path fill="#000000" d="M 21.433594 16.664062 C 21.683594 16.953125 21.847656 17.125 21.925781 17.1875 C 21.945312 17.203125 21.972656 17.1875 21.972656 17.164062 C 21.984375 16.90625 21.984375 16.652344 21.976562 16.40625 C 21.96875 16.101562 22.007812 15.847656 21.613281 15.8125 C 21.578125 15.808594 21.558594 15.789062 21.558594 15.753906 L 21.558594 15.722656 C 21.558594 15.699219 21.574219 15.6875 21.597656 15.6875 L 22.390625 15.6875 C 22.414062 15.6875 22.433594 15.695312 22.445312 15.71875 C 22.449219 15.726562 22.453125 15.734375 22.453125 15.742188 C 22.453125 15.769531 22.4375 15.792969 22.414062 15.800781 C 22.140625 15.890625 22.171875 16.074219 22.167969 16.316406 C 22.164062 16.820312 22.15625 17.335938 22.152344 17.871094 C 22.148438 17.902344 22.128906 17.929688 22.097656 17.941406 C 22.070312 17.949219 22.035156 17.9375 22 17.898438 C 21.699219 17.574219 21.40625 17.25 21.113281 16.914062 C 20.863281 16.628906 20.699219 16.453125 20.617188 16.390625 C 20.601562 16.378906 20.574219 16.390625 20.570312 16.414062 C 20.5625 16.675781 20.5625 16.925781 20.566406 17.171875 C 20.578125 17.480469 20.535156 17.730469 20.933594 17.769531 C 20.96875 17.769531 20.984375 17.789062 20.984375 17.824219 L 20.984375 17.855469 C 20.984375 17.882812 20.972656 17.894531 20.949219 17.894531 L 20.15625 17.894531 C 20.132812 17.894531 20.113281 17.882812 20.101562 17.863281 C 20.097656 17.855469 20.09375 17.847656 20.09375 17.839844 C 20.089844 17.8125 20.105469 17.785156 20.132812 17.777344 C 20.402344 17.6875 20.375 17.503906 20.378906 17.261719 C 20.382812 16.757812 20.386719 16.242188 20.394531 15.710938 C 20.394531 15.675781 20.417969 15.648438 20.445312 15.640625 C 20.476562 15.628906 20.511719 15.640625 20.542969 15.679688 C 20.84375 16.003906 21.140625 16.332031 21.433594 16.664062 Z M 21.433594 16.664062 " fill-opacity="1" fill-rule="nonzero"/><path fill="#000000" d="M 19.054688 17.152344 L 18.402344 17.152344 C 18.378906 17.152344 18.359375 17.164062 18.347656 17.1875 L 18.1875 17.550781 C 18.164062 17.605469 18.1875 17.671875 18.242188 17.695312 L 18.496094 17.808594 C 18.511719 17.816406 18.523438 17.828125 18.523438 17.847656 L 18.523438 17.875 C 18.523438 17.890625 18.511719 17.902344 18.496094 17.902344 L 17.738281 17.902344 C 17.722656 17.902344 17.710938 17.894531 17.703125 17.882812 C 17.699219 17.875 17.695312 17.867188 17.695312 17.855469 C 17.695312 17.835938 17.703125 17.820312 17.71875 17.808594 C 17.847656 17.726562 17.925781 17.65625 17.949219 17.601562 C 18.375 16.644531 18.65625 16.015625 18.792969 15.707031 C 18.816406 15.652344 18.894531 15.652344 18.917969 15.707031 C 19.191406 16.335938 19.46875 16.976562 19.746094 17.632812 C 19.765625 17.671875 19.839844 17.726562 19.976562 17.785156 C 19.996094 17.796875 20.011719 17.816406 20.019531 17.839844 C 20.023438 17.867188 20.015625 17.890625 19.992188 17.910156 C 19.984375 17.910156 19.976562 17.914062 19.964844 17.914062 L 19.105469 17.910156 C 19.066406 17.910156 19.042969 17.871094 19.058594 17.835938 L 19.066406 17.816406 C 19.078125 17.796875 19.09375 17.78125 19.113281 17.773438 C 19.1875 17.75 19.246094 17.699219 19.285156 17.628906 C 19.296875 17.609375 19.296875 17.585938 19.289062 17.570312 L 19.117188 17.191406 C 19.105469 17.164062 19.082031 17.152344 19.054688 17.152344 Z M 18.730469 16.96875 C 18.820312 16.972656 18.902344 16.96875 18.984375 16.960938 C 19.007812 16.957031 19.023438 16.933594 19.015625 16.910156 L 18.761719 16.296875 C 18.761719 16.289062 18.753906 16.285156 18.746094 16.28125 C 18.742188 16.28125 18.742188 16.28125 18.738281 16.28125 C 18.734375 16.28125 18.730469 16.28125 18.726562 16.28125 C 18.71875 16.285156 18.710938 16.289062 18.710938 16.296875 L 18.449219 16.90625 C 18.441406 16.925781 18.453125 16.953125 18.480469 16.957031 C 18.558594 16.964844 18.644531 16.96875 18.730469 16.96875 Z M 18.730469 16.96875 " fill-opacity="1" fill-rule="nonzero"/><g clip-path="url(#e196b19a01)"><path fill="#000000" d="M 25.375 17.195312 C 25.363281 17.164062 25.34375 17.152344 25.3125 17.152344 L 24.660156 17.152344 C 24.636719 17.152344 24.617188 17.164062 24.605469 17.1875 L 24.445312 17.550781 C 24.417969 17.605469 24.445312 17.671875 24.5 17.695312 L 24.753906 17.808594 C 24.773438 17.816406 24.78125 17.832031 24.78125 17.851562 L 24.78125 17.878906 C 24.78125 17.894531 24.769531 17.90625 24.753906 17.90625 L 23.996094 17.90625 C 23.980469 17.90625 23.96875 17.898438 23.960938 17.882812 C 23.953125 17.875 23.953125 17.867188 23.953125 17.859375 C 23.953125 17.835938 23.960938 17.824219 23.976562 17.8125 C 24.105469 17.726562 24.183594 17.65625 24.207031 17.605469 C 24.632812 16.644531 24.914062 16.011719 25.054688 15.707031 C 25.078125 15.648438 25.15625 15.652344 25.179688 15.707031 C 25.453125 16.335938 25.726562 16.980469 26.007812 17.632812 C 26.023438 17.675781 26.101562 17.730469 26.238281 17.789062 C 26.257812 17.800781 26.273438 17.820312 26.277344 17.84375 C 26.285156 17.871094 26.277344 17.894531 26.25 17.910156 C 26.246094 17.914062 26.238281 17.917969 26.222656 17.917969 L 25.363281 17.914062 C 25.328125 17.914062 25.300781 17.875 25.316406 17.839844 L 25.328125 17.820312 C 25.335938 17.800781 25.351562 17.785156 25.371094 17.777344 C 25.449219 17.75 25.507812 17.703125 25.542969 17.628906 C 25.554688 17.613281 25.554688 17.589844 25.546875 17.570312 Z M 25.046875 16.941406 C 25.136719 16.941406 25.21875 16.9375 25.300781 16.925781 C 25.324219 16.925781 25.339844 16.898438 25.328125 16.878906 L 25.074219 16.265625 C 25.070312 16.261719 25.0625 16.253906 25.054688 16.253906 C 25.050781 16.25 25.046875 16.25 25.042969 16.25 C 25.042969 16.25 25.039062 16.25 25.039062 16.253906 C 25.027344 16.253906 25.023438 16.261719 25.019531 16.265625 L 24.765625 16.878906 C 24.757812 16.902344 24.769531 16.925781 24.792969 16.925781 C 24.875 16.9375 24.957031 16.941406 25.046875 16.941406 Z M 25.046875 16.941406 " fill-opacity="1" fill-rule="nonzero"/></g><path fill="#000000" d="M 13.457031 16.621094 C 13.582031 16.640625 13.695312 16.632812 13.796875 16.59375 C 13.824219 16.582031 13.847656 16.5625 13.859375 16.535156 C 13.898438 16.464844 13.925781 16.421875 13.941406 16.402344 C 14.023438 16.308594 14.0625 16.328125 14.066406 16.457031 L 14.082031 17.085938 C 14.082031 17.109375 14.0625 17.132812 14.039062 17.132812 L 14.007812 17.132812 C 13.984375 17.132812 13.972656 17.121094 13.96875 17.09375 C 13.933594 16.835938 13.757812 16.742188 13.445312 16.820312 C 13.414062 16.828125 13.398438 16.847656 13.398438 16.878906 L 13.398438 17.492188 C 13.398438 17.578125 13.449219 17.65625 13.53125 17.691406 L 13.734375 17.785156 C 13.765625 17.796875 13.773438 17.820312 13.765625 17.851562 C 13.75 17.898438 13.71875 17.917969 13.675781 17.914062 C 13.355469 17.882812 13.066406 17.882812 12.8125 17.914062 C 12.78125 17.917969 12.757812 17.902344 12.742188 17.875 C 12.734375 17.859375 12.734375 17.847656 12.734375 17.835938 C 12.738281 17.800781 12.753906 17.777344 12.78125 17.765625 C 12.933594 17.6875 13.003906 17.613281 13.003906 17.4375 C 13.003906 16.757812 13.003906 16.335938 13.003906 16.179688 C 13 15.96875 12.910156 15.851562 12.703125 15.839844 C 12.675781 15.839844 12.652344 15.816406 12.652344 15.789062 L 12.652344 15.753906 C 12.652344 15.730469 12.671875 15.710938 12.699219 15.710938 L 14.238281 15.710938 C 14.257812 15.710938 14.277344 15.726562 14.277344 15.75 L 14.277344 16.179688 C 14.277344 16.207031 14.265625 16.21875 14.238281 16.21875 L 14.214844 16.21875 C 14.183594 16.21875 14.167969 16.203125 14.164062 16.175781 C 14.148438 16 14.050781 15.902344 13.867188 15.878906 C 13.683594 15.855469 13.542969 15.863281 13.449219 15.902344 C 13.417969 15.914062 13.398438 15.945312 13.398438 15.976562 L 13.398438 16.554688 C 13.398438 16.59375 13.417969 16.617188 13.457031 16.621094 Z M 13.457031 16.621094 " fill-opacity="1" fill-rule="nonzero"/><path fill="#000000" d="M 14.71875 16.804688 C 14.71875 16.40625 14.71875 16.175781 14.714844 16.109375 C 14.707031 15.9375 14.605469 15.851562 14.414062 15.847656 C 14.382812 15.847656 14.359375 15.824219 14.359375 15.792969 L 14.359375 15.769531 C 14.359375 15.734375 14.390625 15.707031 14.425781 15.707031 L 15.324219 15.707031 C 15.335938 15.707031 15.347656 15.710938 15.355469 15.722656 C 15.375 15.75 15.378906 15.777344 15.363281 15.804688 C 15.351562 15.820312 15.335938 15.832031 15.316406 15.835938 C 15.175781 15.878906 15.109375 15.984375 15.113281 16.152344 C 15.113281 16.15625 15.113281 16.371094 15.113281 16.796875 C 15.113281 17.195312 15.113281 17.429688 15.117188 17.492188 C 15.125 17.664062 15.226562 17.753906 15.421875 17.753906 C 15.449219 17.757812 15.472656 17.78125 15.472656 17.808594 L 15.472656 17.832031 C 15.472656 17.867188 15.441406 17.898438 15.40625 17.898438 L 14.511719 17.898438 C 14.496094 17.898438 14.484375 17.890625 14.476562 17.878906 C 14.457031 17.855469 14.453125 17.824219 14.46875 17.800781 C 14.480469 17.785156 14.496094 17.773438 14.515625 17.765625 C 14.65625 17.722656 14.726562 17.617188 14.71875 17.453125 C 14.71875 17.445312 14.71875 17.230469 14.71875 16.804688 Z M 14.71875 16.804688 " fill-opacity="1" fill-rule="nonzero"/><path fill="#000000" d="M 23 17.667969 C 23.398438 17.742188 23.707031 17.648438 23.925781 17.386719 C 24.007812 17.292969 24.046875 17.304688 24.042969 17.433594 C 24.027344 17.753906 23.847656 17.90625 23.496094 17.890625 C 23.023438 17.867188 22.675781 17.867188 22.453125 17.890625 C 22.414062 17.894531 22.382812 17.851562 22.402344 17.816406 L 23.375 16.035156 C 23.40625 15.972656 23.371094 15.898438 23.300781 15.886719 C 23.144531 15.863281 22.753906 15.867188 22.667969 16.039062 C 22.636719 16.105469 22.613281 16.15625 22.605469 16.183594 C 22.597656 16.207031 22.585938 16.21875 22.5625 16.21875 L 22.523438 16.21875 C 22.5 16.21875 22.488281 16.207031 22.488281 16.183594 L 22.488281 15.839844 C 22.488281 15.765625 22.550781 15.707031 22.625 15.707031 L 23.90625 15.707031 C 23.949219 15.707031 23.976562 15.75 23.957031 15.789062 L 22.96875 17.601562 C 22.949219 17.636719 22.957031 17.660156 23 17.667969 Z M 23 17.667969 " fill-opacity="1" fill-rule="nonzero"/></svg>